<svg width="99" height="15" viewBox="0 0 99 15" fill="none" xmlns="http://www.w3.org/2000/svg">
<path fill-rule="evenodd" clip-rule="evenodd" d="M13.2666 15H16.5066V9.81995H19.0066L21.2266 15H24.7666L22.1666 9.11995C23.8066 8.27995 24.6266 6.91995 24.6266 4.99995C24.6266 1.93995 22.5866 0.199951 18.9866 0.199951H13.2666V15ZM16.5066 6.97995V3.07995H18.9866C20.4266 3.07995 21.2066 3.75995 21.2066 4.99995C21.2066 6.25995 20.3866 6.97995 18.9666 6.97995H16.5066ZM36.4361 15H27.0361V0.199951H36.4361V3.19995H30.2761V6.09995H35.7361V8.93995H30.2761V12H36.4361V15ZM37.7268 15H41.1068L42.1668 11.88H46.9468L47.9868 15H51.4268L46.1668 0.199951H43.0068L37.7268 15ZM43.1068 9.15995L44.1668 5.99995C44.3468 5.45995 44.5068 4.89995 44.5668 4.55995C44.6268 4.91995 44.8068 5.49995 44.9668 5.99995L46.0268 9.15995H43.1068ZM56.3894 0.199951V12H62.2294V15H53.1494V0.199951H56.3894ZM67.5027 15V0.199951H64.2627V15H67.5027ZM69.4507 3.19995V0.199951H81.0907V3.19995H76.8907V15H73.6507V3.19995H69.4507ZM86.8875 9.37995L81.8875 0.199951H85.5075L87.9875 4.99995C88.2275 5.45995 88.3875 5.81995 88.5475 6.19995C88.631 6.03287 88.7102 5.86148 88.7952 5.67778C88.8932 5.46568 88.9988 5.23717 89.1275 4.97995L91.6075 0.199951H95.1275L90.1275 9.37995V15H86.8875V9.37995Z" fill="url(#paint0_linear_247_238)"/>
<path d="M5.73995 15L0.199951 0.199951H3.65995L6.45995 7.67995C6.79995 8.59995 7.07995 9.51995 7.39995 10.8C7.77995 9.37995 8.05995 8.55995 8.37995 7.67995L11.14 0.199951H14.52L9.07995 15H5.73995Z" fill="#BD00FF"/>
<rect x="95" y="11" width="4" height="4" fill="#BD00FF"/>
<defs>
<linearGradient id="paint0_linear_247_238" x1="25" y1="8" x2="14.5" y2="4" gradientUnits="userSpaceOnUse">
<stop stop-color="white"/>
<stop offset="1" stop-color="white" stop-opacity="0"/>
</linearGradient>
</defs>
</svg>
