<svg width="1920" height="683" viewBox="0 0 1920 683" fill="none" xmlns="http://www.w3.org/2000/svg">
<g clip-path="url(#clip0_5_51)">
<path d="M2147.87 394.988C1967.64 394.988 2064.98 414.596 1786.04 400.892C1694.3 396.945 1651.13 412.068 1514.68 343.046C1428.91 298.422 1377.84 262.277 1299.84 233.139C1107.01 167.245 1100.84 278.084 723.158 356.325C622.137 376.85 558.948 386.406 474.398 415.15C374.651 450.798 310.136 488.658 191.714 472.711C78.4832 454.056 1.45867 401.803 -113.584 377.477C-248.316 352.591 -368.969 394.988 -565.876 394.988" stroke="#3DDEED" stroke-opacity="0.05" stroke-width="0.5" stroke-linecap="round" stroke-linejoin="round"/>
<path d="M2147.87 394.988C2003.42 395.314 2021.06 413.835 1853.9 408.505C1682.4 402.067 1654.35 413.482 1537.29 357.418C1455.46 316.674 1401.3 277.54 1322.45 243.446C1120.17 161.506 1115.11 267.301 723.163 358.045C619.994 381.423 556.619 393.367 474.403 421.412C372.704 457.64 309.039 493.376 191.719 476.456C78.2192 456.707 1.60873 404.129 -113.579 379.352C-247.452 354.15 -366.024 394.946 -565.871 394.993" stroke="#3DDEED" stroke-opacity="0.05" stroke-width="0.5" stroke-linecap="round" stroke-linejoin="round"/>
<path d="M2147.87 394.988C2005.07 395.386 2022.31 415.575 1853.9 412.529C1682.94 408.371 1655.09 415.844 1548.58 366.098C1465.71 325.504 1413.99 286.977 1333.76 249.915C1130.72 161.444 1127.82 256.855 711.853 362.618C596.33 391.279 534.119 405.646 451.789 435.83C341.431 477.227 276.508 501.336 157.801 473.037C44.3938 443.154 -31.7974 391.326 -147.497 375.669C-267.99 362.887 -384.663 394.998 -565.871 394.988" stroke="#3DDEED" stroke-opacity="0.05" stroke-width="0.5" stroke-linecap="round" stroke-linejoin="round"/>
<path d="M2147.87 394.988C2010.11 395.35 2030.75 414.446 1876.51 416.548C1825.39 416.771 1803.61 415.16 1752.13 414.327C1680.05 413.684 1643.8 412.866 1559.9 374.773C1478.21 335.743 1426.5 296.532 1345.06 256.746C1193.76 186.284 1131.13 221.906 1005.84 268.906C793.692 347.376 736.797 356.242 576.164 402.031C357.29 465.336 302.6 529.511 101.258 458.722C-16.2485 415.709 -80.4572 375.908 -204.04 374.079C-330.853 374.375 -391.428 395.008 -565.876 394.988" stroke="#3DDEED" stroke-opacity="0.05" stroke-width="0.5" stroke-linecap="round" stroke-linejoin="round"/>
<path d="M2147.87 394.988C1980.16 395.604 2085.06 422.116 1740.82 419.086C1559.14 417.978 1480.31 317.88 1322.45 248.055C1153.1 177.966 1118.63 238.95 768.391 349.287C501.008 432.081 677.164 371.821 395.251 468.402C135.368 553.677 41.5366 389.596 -181.421 376.244C-299.553 371.723 -386.066 395.014 -565.871 394.988" stroke="#3DDEED" stroke-opacity="0.05" stroke-width="0.5" stroke-linecap="round" stroke-linejoin="round"/>
<path d="M2147.87 394.988C1984.86 395.728 2061.96 428.538 1718.2 423.69C1558.83 417.781 1459.72 306.792 1311.13 244.86C1172.95 191.421 1109.18 230.249 926.69 295.16C687.117 379.673 658.204 384.417 497.012 438.689C403.817 470.551 364.604 489.165 293.48 497.001C140.766 508.83 44.9891 427.026 -102.274 389.43C-237.094 358.49 -334.693 395.034 -565.876 394.993" stroke="#3DDEED" stroke-opacity="0.05" stroke-width="0.5" stroke-linecap="round" stroke-linejoin="round"/>
<path d="M2147.87 394.988C1991.2 395.884 2035.05 434.158 1718.2 428.196C1564.36 421.676 1466.52 315.415 1322.44 250.464C1211.86 203.851 1150.48 216.618 1051.06 249.775C185.917 541.91 355.861 560.342 -34.4319 412.379C-213.419 347.241 -288.006 395.143 -565.876 394.993" stroke="#3DDEED" stroke-opacity="0.05" stroke-width="0.5" stroke-linecap="round" stroke-linejoin="round"/>
<path d="M2147.87 394.988C2030.96 395.811 2024.77 420.112 1876.51 431.045C1690.4 442.475 1643 425.56 1582.51 398.711C1407.67 315.969 1300.4 178.618 1096.31 234.527C907.181 290.369 654.798 401.519 406.555 483.033C193.753 550.191 113.483 462.762 -68.3505 402.389C-221.012 354.984 -289.771 395.252 -565.871 394.993" stroke="#3DDEED" stroke-opacity="0.05" stroke-width="0.5" stroke-linecap="round" stroke-linejoin="round"/>
<path d="M2147.87 394.988C2032.84 395.935 2016.31 424.058 1865.19 435.447C1600.98 452.057 1602.77 410.976 1378.99 281.243C1206.25 184.554 1134.26 204.576 791.005 342.611C370.727 514.212 304.867 537.357 157.796 493.599C43.2914 456.842 -31.6058 403.331 -147.502 385.303C-262.006 370.806 -350.574 395.273 -565.876 394.988" stroke="#3DDEED" stroke-opacity="0.05" stroke-width="0.5" stroke-linecap="round" stroke-linejoin="round"/>
<path d="M2147.87 394.988C2035.19 396.065 2014.62 425.85 1865.19 439.15C1603.16 459.049 1597.14 410.541 1378.99 282.471C1224.18 194.726 1143.55 196.813 836.233 323.645C574.782 432.951 383.771 535.141 225.638 513.378C40.4342 482.049 -15.1409 375.089 -260.578 382.723C-383.027 387.54 -401.35 395.273 -565.876 394.993" stroke="#3DDEED" stroke-opacity="0.05" stroke-width="0.5" stroke-linecap="round" stroke-linejoin="round"/>
<path d="M2147.87 394.988C2037.06 396.194 2013.83 427.565 1865.19 442.838C1605.41 465.921 1589.42 408.79 1378.99 283.641C1230.86 198.667 1140.19 192.214 836.233 322.79C633.064 411.11 421.856 529.936 259.561 521.556C78.39 506.163 -8.77434 384.515 -226.654 383.205C-344.932 384.018 -370.594 395.392 -565.876 394.983" stroke="#3DDEED" stroke-opacity="0.05" stroke-width="0.5" stroke-linecap="round" stroke-linejoin="round"/>
<path d="M2147.87 394.988C2025.55 396.531 1977.85 448.39 1774.75 451.078C1592.2 452.015 1553.84 389.653 1378.99 283.921C1243.53 204.918 1169.81 206.125 1017.16 251.753C770.922 327.85 620.31 453.854 383.941 514.828C138.059 572.979 37.8358 398.509 -192.731 384.842C-298.244 380.647 -357.132 395.573 -565.871 394.982" stroke="#3DDEED" stroke-opacity="0.05" stroke-width="0.5" stroke-linecap="round" stroke-linejoin="round"/>
<path d="M2147.87 394.988C2036.38 396.609 2016.95 430.32 1865.19 449.612C1600.55 479.154 1581.97 404.543 1367.67 277.488C1273.21 223.589 1205.28 206.803 1096.31 228.54C765.079 300.51 540.087 536.705 282.176 532.582C98.7991 523.487 -1.1397 393.62 -204.04 385.282C-305.413 382.858 -359.114 395.64 -565.876 394.993" stroke="#3DDEED" stroke-opacity="0.05" stroke-width="0.5" stroke-linecap="round" stroke-linejoin="round"/>
<path d="M2147.87 394.988C2041.88 396.717 2010.49 432.78 1865.19 452.994C1603.48 485.208 1578.99 404.952 1367.67 277.654C1273.53 223.061 1206.06 206.135 1096.31 226.443C764.923 293.585 564.544 537.528 293.48 538.046C112.919 532.323 5.67714 403.274 -181.426 387.348C-284.362 380.916 -331.893 395.687 -565.876 394.988" stroke="#3DDEED" stroke-opacity="0.05" stroke-width="0.5" stroke-linecap="round" stroke-linejoin="round"/>
<path d="M2147.87 394.988C2036.74 397.013 2008.09 437.177 1853.9 457.899C1592.66 488.502 1567.89 395.749 1356.38 271.17C1252.57 212.863 1186.16 207.466 1084.99 226.479C761.895 292.301 582.763 538.025 304.79 543.489C118.654 540.977 10.3563 404.952 -181.426 388.265C-281.194 381.884 -324.15 395.816 -565.876 394.993" stroke="#3DDEED" stroke-opacity="0.05" stroke-width="0.5" stroke-linecap="round" stroke-linejoin="round"/>
<path d="M2147.87 394.988C2041.53 397.127 2003.44 439.591 1853.9 461.379C1705.27 480.335 1646.68 457.277 1582.51 422.639C1404.44 320.791 1320.53 187.05 1096.31 222.123C882.823 259.149 752.542 373.613 587.473 465.424C307.347 616.831 187.138 532.24 10.8014 447.328C-180.189 357.185 -200.117 396.06 -565.871 394.988" stroke="#3DDEED" stroke-opacity="0.05" stroke-width="0.5" stroke-linecap="round" stroke-linejoin="round"/>
<path d="M2147.87 394.988C2043.81 397.355 2000.96 441.595 1853.9 464.424C1705.79 484.597 1646.3 460.058 1582.51 424.757C1403.54 319.926 1322.38 185.848 1096.31 218.223C882.699 252.514 753.841 375.095 587.473 471.898C312.636 626.941 181.072 531.805 10.8014 448.364C-177.963 357.807 -200.2 396.22 -565.871 394.988" stroke="#3DDEED" stroke-opacity="0.05" stroke-width="0.5" stroke-linecap="round" stroke-linejoin="round"/>
<path d="M2147.87 394.988C2044.76 397.608 1999.77 443.433 1853.9 467.475C1708.24 488.575 1647.42 463.674 1582.51 426.881C1404.29 319.999 1323.83 184.751 1096.31 214.324C882.849 245.839 754.556 376.84 587.473 478.377C312.108 640.179 170.606 527.346 -0.508258 443.894C-176.592 360.355 -198.709 396.417 -565.871 394.988" stroke="#3DDEED" stroke-opacity="0.05" stroke-width="0.5" stroke-linecap="round" stroke-linejoin="round"/>
<path d="M2147.87 394.988C2045.35 397.862 1999.12 445.22 1853.9 470.52C1708.28 492.915 1646.75 466.279 1582.51 428.999C1400.28 317.171 1325.42 183.668 1096.31 210.424C766.352 254.928 629.13 571.773 316.099 566.122C202.32 560.228 127.573 509.638 10.8014 450.446C-172.171 359.79 -190.836 396.614 -565.871 394.988" stroke="#3DDEED" stroke-opacity="0.05" stroke-width="0.5" stroke-linecap="round" stroke-linejoin="round"/>
<path d="M2147.87 394.988C2040.28 398.292 1994.03 450.803 1842.58 475.404C1706.11 494.707 1645.59 470.717 1571.21 424.027C1390.65 305.539 1318.34 179.473 1084.99 207.901C762.713 253.581 623.017 593.52 304.784 571.063C191.202 559.167 116.522 504.692 -0.513439 445.795C-172.171 361.888 -190.784 396.806 -565.871 394.988" stroke="#3DDEED" stroke-opacity="0.05" stroke-width="0.5" stroke-linecap="round" stroke-linejoin="round"/>
<path d="M2147.87 394.988C2040.89 398.572 1993.52 452.673 1842.58 478.496C1708.9 498.446 1647.76 475.047 1571.21 425.923C1390.04 304.404 1319.67 178.028 1084.99 203.696C874.427 231.099 740.648 396.966 576.158 505.272C323.765 664.309 161.864 529.651 -0.513439 446.67C-170.593 362.318 -190.479 396.997 -565.871 394.988" stroke="#3DDEED" stroke-opacity="0.05" stroke-width="0.5" stroke-linecap="round" stroke-linejoin="round"/>
<path d="M2147.87 394.988C2041.38 398.913 1992.4 454.418 1842.58 481.081C1709.5 501.797 1647.77 477.476 1571.21 427.212C1390.6 303.286 1320.03 174.662 1084.99 198.056C763.696 237.226 644.591 607.954 316.094 582.939C197.428 569.779 119.565 509.162 -0.513439 446.94C-168.3 362.659 -186.633 397.241 -565.871 394.988" stroke="#3DDEED" stroke-opacity="0.05" stroke-width="0.5" stroke-linecap="round" stroke-linejoin="round"/>
<path d="M2147.87 394.988C2042.68 399.235 1990.89 456.21 1842.58 483.67C1711.1 504.972 1649.01 480.744 1571.21 428.507C1391.09 302.146 1320.47 171.295 1084.99 192.421C764.017 228.861 649.115 620.814 316.094 588.32C202.568 573.295 127.184 515.931 10.7962 453.144C-165.365 360.614 -184.335 397.51 -565.871 394.988" stroke="#3DDEED" stroke-opacity="0.05" stroke-width="0.5" stroke-linecap="round" stroke-linejoin="round"/>
<path d="M2147.87 394.988C2042.81 399.602 1990.4 457.847 1842.58 486.26C1711.17 508.395 1648.37 482.759 1571.21 429.797C1390.77 300.437 1320.98 167.929 1084.99 186.786C880.359 208.305 738.774 408.433 576.158 526.455C336.467 691.732 146.962 525.973 -0.513439 447.473C-166.954 361.738 -184.361 397.759 -565.871 394.988" stroke="#3DDEED" stroke-opacity="0.05" stroke-width="0.5" stroke-linecap="round" stroke-linejoin="round"/>
<path d="M2147.87 394.988C2049.13 399.659 1994.04 455.216 1853.9 486.591C1715.48 514.17 1650.73 484.354 1582.51 439.01C1404.74 314.333 1331.24 169.141 1096.31 180.353C888.615 194.938 755.306 393.558 587.473 525.052C350.887 702.08 167.014 538.082 -0.508258 447.737C-164.671 362.142 -180.406 397.479 -565.871 394.988" stroke="#3DDEED" stroke-opacity="0.05" stroke-width="0.5" stroke-linecap="round" stroke-linejoin="round"/>
<path d="M2147.87 394.988C2047.02 400.115 1975.67 467.258 1831.28 493.407C1703.77 513.166 1641.96 485.208 1559.9 423.846C1383.08 286.428 1308.68 155.426 1073.69 176.412C873.423 200.899 727.319 430.398 564.854 548.808C336.627 705.011 143.152 523.7 -11.8179 441.968C-166.203 363.773 -180.815 397.702 -565.871 394.988" stroke="#3DDEED" stroke-opacity="0.05" stroke-width="0.5" stroke-linecap="round" stroke-linejoin="round"/>
<path d="M2147.87 394.988C2047.78 400.488 1983.85 463.43 1842.58 493.376C1714.27 517.309 1649.43 490.268 1571.21 433.023C1390.23 294.787 1320.59 155.68 1084.99 168.907C884.231 186.273 741.383 417.512 576.158 547.607C350.463 715.458 152.537 531.914 -0.513439 447.659C-163.315 361.225 -180.976 397.981 -565.871 394.988" stroke="#3DDEED" stroke-opacity="0.05" stroke-width="0.5" stroke-linecap="round" stroke-linejoin="round"/>
<path d="M2147.87 394.988C2048.55 400.835 1982.78 464.829 1842.58 495.396C1710.71 520.712 1646.04 489.663 1571.21 433.748C1394.97 296.283 1314.67 143.193 1073.69 163.366C882.445 186.781 738.598 423.96 576.164 554.65C351.162 725.35 152.63 529.262 -11.8127 441.357C-166.012 362.375 -181.405 398.261 -565.871 394.988" stroke="#3DDEED" stroke-opacity="0.05" stroke-width="0.5" stroke-linecap="round" stroke-linejoin="round"/>
<path d="M2147.87 394.988C2047.9 401.286 1983.04 465.983 1842.58 497.411C1713.32 522.928 1648.37 493.314 1571.21 434.468C1395.55 294.626 1313.51 137.367 1073.69 156.845C879.691 180.566 728.044 444.221 564.854 570.442C350.033 725.35 150.394 528.34 -11.8179 441.051C-165.453 361.903 -179.309 398.561 -565.871 394.988" stroke="#3DDEED" stroke-opacity="0.05" stroke-width="0.5" stroke-linecap="round" stroke-linejoin="round"/>
<path d="M2147.87 394.988C2050.58 401.503 1979.73 467.92 1842.58 499.425C1710.21 526.253 1645.27 492.811 1571.21 435.183C1397.21 293.854 1312.55 131.581 1073.69 150.314C881.855 173.771 727.889 449.125 564.854 577.641C352.968 732.984 150.083 528.449 -11.8179 440.735C-165.665 361.059 -180.572 398.831 -565.871 394.988" stroke="#3DDEED" stroke-opacity="0.05" stroke-width="0.5" stroke-linecap="round" stroke-linejoin="round"/>
<path d="M2147.87 394.988C2047.05 402.156 1982.79 468.35 1842.58 501.362C1710.4 528.874 1645.3 494.64 1571.21 435.836C1399.76 293.839 1311.71 125.579 1073.69 143.861C878.874 167.908 718.587 470.422 553.55 593.183C342.373 737.345 137.547 513.911 -34.4319 428.927C-173.341 364.146 -189.775 399.064 -565.876 394.983" stroke="#3DDEED" stroke-opacity="0.05" stroke-width="0.5" stroke-linecap="round" stroke-linejoin="round"/>
<path d="M2147.87 394.988C2047.27 402.554 1982.02 469.246 1842.58 502.833C1710.31 531.002 1645.43 496.147 1571.21 436.095C1400.95 292.342 1310.14 118.483 1073.69 137.791C885.835 162.496 729.364 458.613 564.854 591.433C360.121 744.352 157.961 532.074 -11.8179 439.896C-165.655 360.153 -183.802 399.53 -565.871 394.988" stroke="#3DDEED" stroke-opacity="0.05" stroke-width="0.5" stroke-linecap="round" stroke-linejoin="round"/>
<path d="M2147.87 394.988C2048.63 402.86 1979.65 470.567 1842.58 504.309C1705.96 534.084 1641.5 494.308 1571.21 436.353C1402.35 291.073 1308.71 111.388 1073.69 131.721C887.75 157.674 731.046 463.036 564.854 598.093C359.661 752.017 155.756 525.906 -23.1276 433.551C-168.802 362.25 -186.763 399.939 -565.871 394.988" stroke="#3DDEED" stroke-opacity="0.05" stroke-width="0.5" stroke-linecap="round" stroke-linejoin="round"/>
<path d="M2147.87 394.988C2047.11 403.393 1970.34 477.274 1831.28 508.297C1596.17 553.625 1535.35 371.381 1333.76 207.021C1277.41 163.345 1230.1 136.776 1152.83 126.796C1120.12 123.538 1094.78 122.533 1062.38 127.319C875.752 166.774 708.37 507.313 542.245 621.006C341.855 743.726 136.227 505.785 -45.7312 422.37C-181.473 364.255 -247.938 400.048 -452.795 398.038C-508.686 397.07 -505.197 395.842 -565.871 394.988" stroke="#3DDEED" stroke-opacity="0.05" stroke-width="0.5" stroke-linecap="round" stroke-linejoin="round"/>
<path d="M2147.87 394.988C2048.75 403.678 1978.15 472.473 1842.58 507.251C1714.24 536.508 1649.24 503.605 1571.21 436.871C1403.84 287.479 1306.09 97.2541 1073.69 119.581C892.197 147.839 732.785 473.146 564.854 611.414C369.562 759.118 172.485 537.632 -11.8179 438.373C-164.262 360.246 -178.553 400.84 -565.871 394.988" stroke="#3DDEED" stroke-opacity="0.05" stroke-width="0.5" stroke-linecap="round" stroke-linejoin="round"/>
<path d="M2147.87 394.988C2050.94 403.87 1974.84 473.985 1842.58 508.639C1605.98 563.755 1545.96 386.017 1345.06 208.414C1271.19 145.777 1190.32 101.915 1073.69 113.858C971.38 130.779 881.301 242.607 802.31 341.482C613.266 580.313 533.612 745.393 282.17 624.134C94.8964 528.47 1.62432 387.183 -215.35 389.317C-291.577 391.171 -341.888 398.991 -441.496 398.52C-499.064 397.8 -502.154 396.029 -565.876 394.993" stroke="#3DDEED" stroke-opacity="0.05" stroke-width="0.5" stroke-linecap="round" stroke-linejoin="round"/>
<path d="M2147.87 394.988C2048.8 404.429 1975.85 473.996 1842.58 509.597C1712.84 540.449 1648.49 505.314 1571.21 436.923C1407.84 286.024 1303.18 83.1202 1073.69 109.746C896.674 142.033 735.544 483.789 564.854 623.326C368.522 769.974 165.642 520.965 -34.4372 426.415C-171.747 365.503 -182.259 401.85 -565.881 394.983" stroke="#3DDEED" stroke-opacity="0.05" stroke-width="0.5" stroke-linecap="round" stroke-linejoin="round"/>
<path d="M2147.87 394.988C2048.92 404.771 1974.6 474.612 1842.58 510.555C1713.85 541.806 1649.5 507.215 1571.21 436.783C1409.87 285.319 1301.83 76.0506 1073.69 105.639C894.309 141.38 727.651 508.841 553.55 637.123C366.063 760.853 156.745 514.849 -34.4319 426.156C-171.089 366.735 -179.242 402.528 -565.876 394.982" stroke="#3DDEED" stroke-opacity="0.05" stroke-width="0.5" stroke-linecap="round" stroke-linejoin="round"/>
<path d="M2147.87 394.988C2048.54 405.154 1973.9 475.088 1842.58 511.513C1713.43 543.495 1649.46 508.173 1571.21 436.649C1413.56 286.277 1301.16 68.9293 1073.69 101.537C897.569 139.625 727.759 515.905 553.55 642.478C365.779 764.188 155.27 506.774 -45.7364 421.085C-182.099 367.088 -246.287 403.347 -452.8 399.105C-508.334 397.546 -508.639 396.189 -565.876 394.988" stroke="#3DDEED" stroke-opacity="0.05" stroke-width="0.5" stroke-linecap="round" stroke-linejoin="round"/>
<path d="M2147.87 394.988C2048.14 405.563 1961.89 482.313 1831.28 515.325C1596.5 567.127 1540.53 368.678 1333.76 183.155C1278.94 136.429 1231.14 106.033 1152.83 96.1716C1119.6 93.1211 1094.74 92.5254 1062.38 100.071C889.593 155.017 716.03 544.442 542.245 655.022C361.436 754.871 153.013 503.931 -45.7312 420.925C-182.316 367.984 -245.982 404.17 -452.795 399.348C-509.058 397.629 -508.888 396.277 -565.871 394.988" stroke="#3DDEED" stroke-opacity="0.05" stroke-width="0.5" stroke-linecap="round" stroke-linejoin="round"/>
<path d="M2147.87 394.988C2048.79 405.817 1971.25 476.336 1842.58 513.326C1715.66 546.022 1651.74 512.207 1571.21 436.286C1419.79 287.344 1299.74 54.987 1073.69 94.0015C902.321 137.139 731.274 527.776 553.55 652.733C371.514 765.892 165.089 506.774 -45.7364 420.832C-181.871 369.382 -248.787 404.973 -452.8 399.618C-508.427 397.758 -509.566 396.36 -565.876 394.993" stroke="#3DDEED" stroke-opacity="0.05" stroke-width="0.5" stroke-linecap="round" stroke-linejoin="round"/>
<path d="M2147.87 394.988C2048.32 406.102 1970.3 476.43 1842.58 513.782C1715.07 547.249 1651.26 512.228 1571.21 435.753C1425.01 290.058 1335.78 116.557 1164.14 91.1685C1008.88 74.3674 967.829 143.167 745.772 446.24C575.76 675.293 514.331 708.093 383.941 666.919C235.4 614.791 122.557 491.341 -34.4319 425.441C-168.672 372.805 -176.017 405.341 -565.876 394.988" stroke="#3DDEED" stroke-opacity="0.05" stroke-width="0.5" stroke-linecap="round" stroke-linejoin="round"/>
<path d="M2147.87 394.988C2047.81 406.392 1969.3 476.538 1842.58 514.237C1605.73 577.553 1549.37 379.264 1345.06 183.637C1292.04 135.103 1242.99 99.6675 1164.15 88.9777C1131.5 85.865 1105.3 85.7252 1073.7 92.5876C906.974 142.939 736.864 539.869 553.555 659.01C380.417 757.341 182.583 513.005 -34.4268 425.446C-167.409 375.41 -170.489 406.418 -565.871 394.988" stroke="#3DDEED" stroke-opacity="0.05" stroke-width="0.5" stroke-linecap="round" stroke-linejoin="round"/>
<path d="M2147.87 394.988C2052.61 406.071 1973.85 471.484 1853.9 511.27C1615.05 583.472 1564.85 401.203 1356.38 191.514C1282.12 120.053 1203.85 69.6751 1084.99 89.1745C917.109 129.344 754.82 522.053 564.859 655.1C392.694 762.427 199.519 521.815 -23.1223 429.828C-160.624 376.607 -164.097 407.49 -565.876 394.993" stroke="#3DDEED" stroke-opacity="0.05" stroke-width="0.5" stroke-linecap="round" stroke-linejoin="round"/>
<path d="M2147.87 394.988C2046.91 406.967 1966.75 477.005 1842.58 515.144C1613.04 578.728 1562.78 397.375 1356.37 188.557C1282.41 117.007 1203.74 66.3966 1084.99 88.2112C922.031 130.841 768.008 507.903 576.158 650.915C400.013 769.637 214.576 523.809 -23.1276 429.646C-159.449 379.082 -162.145 408.495 -565.881 394.993" stroke="#3DDEED" stroke-opacity="0.05" stroke-width="0.5" stroke-linecap="round" stroke-linejoin="round"/>
<path d="M2147.87 394.988C2048.02 407.045 1963.14 477.849 1842.58 515.48C1715.29 551.336 1652.72 515.418 1571.21 433.52C1407.17 261.775 1306.76 42.6917 1084.99 88.2112C923.92 134.155 770.555 515.03 576.158 654.038C402.026 766.089 221.404 521.752 -23.1276 429.444C-156.866 382.273 -158.688 409.624 -565.881 394.988" stroke="#3DDEED" stroke-opacity="0.05" stroke-width="0.5" stroke-linecap="round" stroke-linejoin="round"/>
<path d="M2147.87 394.988C2048 407.102 1959.96 478.284 1842.58 515.418C1716.14 551.574 1653.61 516.123 1571.21 432.552C1406.41 258.471 1306.83 39.9468 1084.99 91.5311C925.867 141.546 773.546 522.99 576.158 655.074C404.723 757.668 226.973 517.293 -23.1276 429.191C-87.652 407.987 -135.08 401.348 -204.045 401.234C-437.453 403.632 -161.286 410.774 -565.881 394.982" stroke="#3DDEED" stroke-opacity="0.05" stroke-width="0.5" stroke-linecap="round" stroke-linejoin="round"/>
<path d="M2147.87 394.988C2045.73 407.438 1960.61 477.517 1842.58 515.361C1604.38 584.456 1549.57 367.139 1345.06 171.414C1292.51 123.631 1243.75 89.6666 1164.15 85.8029C1121.8 85.5751 1098.27 90.2933 1073.7 98.7301C916.012 168.017 753.412 572.182 553.555 667.773C392.932 731.731 215.306 501.595 -34.4269 425.493C-99.3498 407.174 -146.457 402.58 -215.34 403.186C-499.11 408.101 -425.771 400.907 -565.865 394.988" stroke="#3DDEED" stroke-opacity="0.05" stroke-width="0.5" stroke-linecap="round" stroke-linejoin="round"/>
<path d="M2147.87 394.988C2047.54 407.278 1969.1 470.81 1853.9 511.622C1725.34 553.387 1662.96 521.307 1582.51 442.289C1412.83 267.032 1313.49 32.5458 1084.99 98.1708C925.447 157.596 771.45 557.877 564.859 662.895C400.313 734.331 232.351 500.389 -34.432 425.514C-99.2411 408.702 -147.192 404.512 -215.345 405.025C-497.526 409.329 -395.222 402.725 -565.871 394.988" stroke="#3DDEED" stroke-opacity="0.05" stroke-width="0.5" stroke-linecap="round" stroke-linejoin="round"/>
<path d="M2147.87 394.988C2044.58 407.702 1956.92 477.605 1842.58 515.237C1714.86 553.371 1652.63 514.496 1571.21 429.657C1423.96 270.01 1335.68 88.5582 1164.14 88.4287C1121.49 90.2725 1098.11 96.2233 1073.69 106.027C920.763 182.529 769.789 568.479 564.854 663.418C401.788 727.033 240.602 496.147 -34.4371 425.529C-99.3756 410.168 -148.418 406.444 -215.35 406.853C-481.941 410.375 -411.609 402.451 -565.876 394.982" stroke="#3DDEED" stroke-opacity="0.05" stroke-width="0.5" stroke-linecap="round" stroke-linejoin="round"/>
<path d="M2147.87 394.988C2042.57 407.967 1956.6 477.067 1842.58 515.045C1715.83 553.376 1653.77 515.294 1571.21 428.574C1407.58 249.852 1308 29.3968 1084.99 105.934C928.936 173.227 787.315 556.722 576.158 658.368C412.28 726.204 264.805 505.319 -11.8179 430.874C-171.804 390.901 -194.03 423.986 -531.957 397.018C-543.665 396.21 -544.721 396.086 -565.881 394.988" stroke="#3DDEED" stroke-opacity="0.05" stroke-width="0.5" stroke-linecap="round" stroke-linejoin="round"/>
<path d="M2147.87 394.988C2041.19 407.992 1955.74 476.461 1842.58 514.465C1715.63 553.231 1653.82 514.341 1571.21 427.145C1404.98 244.798 1308.69 29.7593 1084.99 113.75C932.352 184.46 797.206 550.455 587.468 651.293C417.958 722.123 285.38 504.879 -0.513385 432.397C-170.675 392.32 -209.439 426.788 -520.648 398.111C-537.506 396.686 -541.088 396.37 -565.876 394.988" stroke="#3DDEED" stroke-opacity="0.05" stroke-width="0.5" stroke-linecap="round" stroke-linejoin="round"/>
<path d="M2147.87 394.988C2008.75 411.784 1903.02 520.121 1763.43 529.128C1530.03 532.52 1431.1 100.921 1186.76 99.4189C1094.35 103.801 1052.76 134.316 1005.85 184.476C875.043 333.413 763.552 566.521 598.788 644.954C468.124 699.34 401.659 610.088 191.724 500.808C-40.8865 383.236 -185.733 421.671 -384.948 410.51C-468.53 405.201 -495.735 399.178 -565.865 394.993" stroke="#3DDEED" stroke-opacity="0.05" stroke-width="0.5" stroke-linecap="round" stroke-linejoin="round"/>
<path d="M2147.87 394.988C2041.72 407.682 1963.58 468.77 1853.9 509.447C1725.92 553.185 1664.35 519.556 1582.51 436.328C1410.62 253.084 1316.9 27.377 1084.99 129.37C931.861 210.118 795.576 587.507 576.164 651.309C409.314 689.381 293.547 478.843 -11.8127 427.445C-72.8899 418.081 -130.53 415.031 -192.731 414.399C-495.425 413.42 -388.012 406.309 -565.871 394.982" stroke="#3DDEED" stroke-opacity="0.05" stroke-width="0.5" stroke-linecap="round" stroke-linejoin="round"/>
<path d="M2147.87 394.988C2036.57 408.148 1953.65 474.456 1842.58 512.736C1715.06 552.739 1654.01 511.539 1571.21 422.851C1424.59 259.972 1337.02 82.6539 1164.14 111.367C1121.98 120.192 1098.32 129.722 1073.69 143.493C926.048 240.665 793.101 599.652 576.164 648.952C408.942 676.78 303.64 473.203 -0.508258 427.823C-179.262 403.746 -207.689 432.06 -520.642 398.68C-537.604 397.018 -541.041 396.666 -565.871 394.982" stroke="#3DDEED" stroke-opacity="0.05" stroke-width="0.5" stroke-linecap="round" stroke-linejoin="round"/>
<path d="M2147.87 394.988C2034.73 408.184 1953.88 473.41 1842.58 512.021C1715.47 552.201 1654.63 510.964 1571.21 421.293C1401.57 232.295 1312.01 31.4944 1084.99 146.021C933.279 235.687 807.33 595.721 587.468 643.783C413.295 671.741 317.978 466.294 10.7962 427.264C-53.5574 419.993 -127.683 418.527 -192.736 418.05C-452.697 417.439 -430.828 404.673 -565.876 394.982" stroke="#3DDEED" stroke-opacity="0.05" stroke-width="0.5" stroke-linecap="round" stroke-linejoin="round"/>
<path d="M2147.87 394.988C1996.36 412.214 1890.43 525.44 1752.13 526.621C1528 515.548 1425.74 73.4869 1175.46 123.222C1081.59 146.358 1046.65 179.571 994.547 242.83C861.793 410.095 757.299 614.646 587.473 638.635C454.791 649.869 374.107 537.673 191.719 464.274C49.0471 410.1 -59.4477 421.489 -283.187 419.454C-414.425 417.372 -466.216 402.57 -565.871 394.983" stroke="#3DDEED" stroke-opacity="0.05" stroke-width="0.5" stroke-linecap="round" stroke-linejoin="round"/>
<path d="M2147.87 394.988C2036.48 407.34 1961.09 465.517 1853.9 505.93C1728.12 549.746 1667.14 516.822 1582.51 429.626C1402.68 236.014 1321.84 34.1253 1084.99 169.13C979.682 237.868 902.041 410.188 768.391 542.712C572.411 726.702 458.228 589.915 282.176 494.085C94.2183 395.314 -1.06213 425.969 -294.496 420.588C-415.704 417.439 -473.111 402.456 -565.871 394.988" stroke="#3DDEED" stroke-opacity="0.05" stroke-width="0.5" stroke-linecap="round" stroke-linejoin="round"/>
<path d="M2147.87 394.988C2034.98 407.19 1960.99 464.393 1853.9 504.853C1728.04 548.767 1667.48 515.392 1582.51 427.725C1394.27 224.92 1328.87 47.8605 1096.31 173.869C939.883 268.15 828.397 606.97 610.087 628.044C422.182 635.709 339.055 426.969 33.4155 418.133C-52.6256 416.782 -4.34366 421.184 -249.268 422.37C-403.348 422.168 -457.743 404.165 -565.876 394.982" stroke="#3DDEED" stroke-opacity="0.05" stroke-width="0.5" stroke-linecap="round" stroke-linejoin="round"/>
<path d="M2147.87 394.988C2033.37 407.029 1961.18 463.176 1853.9 503.77C1727.01 548.135 1666.76 512.901 1582.51 425.819C1391.16 219.549 1329.43 50.6623 1096.31 185.051C985.427 255.518 913.279 424.11 779.696 549.052C589.109 716.519 467.405 566.578 293.48 473.39C110.512 379.569 31.3088 426.135 -271.888 423.644C-405.647 421.603 -464.224 404.082 -565.876 394.988" stroke="#3DDEED" stroke-opacity="0.05" stroke-width="0.5" stroke-linecap="round" stroke-linejoin="round"/>
<path d="M2147.87 394.988C2025.55 407.475 1954.66 467.34 1842.58 506.51C1715.64 546.913 1654.39 501.181 1571.21 411.576C1384.61 204.24 1316.48 50.0099 1084.99 204.426C932.891 317.534 821.88 645.306 598.778 618.986C413.233 587.517 332.124 392.331 33.4103 409.557C-88.9148 418.009 -50.1929 423.173 -237.964 424.835C-398.1 425.327 -451.993 405.677 -565.876 394.988" stroke="#3DDEED" stroke-opacity="0.05" stroke-width="0.5" stroke-linecap="round" stroke-linejoin="round"/>
<path d="M2147.87 394.988C2024.37 407.107 1954.32 466.165 1842.58 504.972C1715.23 545.24 1653.6 497.633 1571.21 409.158C1428.45 251.22 1342.4 95.7159 1175.45 166.214C1142.77 181.462 1113.51 198.222 1084.99 218.073C931.446 336.132 823.609 656.721 598.778 611.455C490.93 584.322 411.913 502.926 293.48 443.433C199.675 398.981 130.595 393.025 22.1058 405.248C-334.507 448.462 -402.738 410.976 -565.876 394.982" stroke="#3DDEED" stroke-opacity="0.05" stroke-width="0.5" stroke-linecap="round" stroke-linejoin="round"/>
<path d="M2147.87 394.988C2022.94 406.77 1954.51 464.787 1842.58 503.434C1715.05 543.484 1653.46 494.779 1571.21 406.744C1428.4 249.438 1342.74 97.7513 1175.45 176.355C1143.64 192.669 1113.43 211.118 1084.99 231.725C929.899 354.917 825.105 668.431 598.778 603.93C484.838 565.951 397.761 471.085 270.866 417.755C175.466 380.833 106.361 385.857 -0.508258 403.922C-286.939 453.191 -441.858 407.671 -565.871 394.988" stroke="#3DDEED" stroke-opacity="0.05" stroke-width="0.5" stroke-linecap="round" stroke-linejoin="round"/>
<path d="M2147.87 394.988C2021.35 406.434 1954.91 463.358 1842.58 501.896C1715.28 541.589 1653.77 492.413 1571.21 404.326C1428.3 247.605 1343.1 99.7607 1175.45 186.486C1144.03 204.058 1113 224.267 1084.99 245.372C928.936 373.266 826.492 680.307 598.778 596.4C486.468 549.767 396.524 452.259 270.866 402.456C164.157 363.975 89.8187 380.745 -23.1223 404.554C-264.734 454.714 -462.112 406.045 -565.876 394.993" stroke="#3DDEED" stroke-opacity="0.05" stroke-width="0.5" stroke-linecap="round" stroke-linejoin="round"/>
<path d="M2147.87 394.988C1985.59 409.028 1892.61 510.058 1763.43 514.833C1535.25 509.737 1438.02 61.0517 1186.76 190.235C973.15 310.873 947.502 472.053 791.005 578.961C588.845 702.971 458.3 425.451 225.643 374.659C83.0017 348.981 -9.44216 416.605 -170.111 424.478C-394.746 433.116 -421.92 410.929 -565.865 394.988" stroke="#3DDEED" stroke-opacity="0.05" stroke-width="0.5" stroke-linecap="round" stroke-linejoin="round"/>
<path d="M2147.87 394.988C2025.2 405.097 1962.44 455.081 1853.9 494.842C1727.59 537.507 1667.52 498.177 1582.51 411.255C1500.14 323.992 1453.8 257.181 1378.99 203.929C1273.67 136.3 1210.18 178.401 1107.6 254.752C934.107 388.384 840.514 687.055 621.392 591.992C528.575 546.876 443.626 457.681 327.404 395.526C80.8901 272.138 31.2416 480.107 -430.186 414.834C-493.09 405.548 -510.28 401.353 -565.876 394.982" stroke="#3DDEED" stroke-opacity="0.05" stroke-width="0.5" stroke-linecap="round" stroke-linejoin="round"/>
<path d="M2147.87 394.988C2023.51 404.688 1964.28 453.077 1853.9 492.899C1727.87 534.788 1667.8 494.961 1582.51 408.174C1496.87 318.031 1445.91 245.657 1367.67 198.366C1267.69 145.151 1204.48 190.639 1096.31 276.691C929.211 415.347 835.441 704.846 610.087 577.154C521.324 522.731 431.576 428.248 316.099 372.412C73.2347 264.338 31.961 484.882 -452.8 411.556C-518.329 401.373 -520.016 400.379 -565.876 394.993" stroke="#3DDEED" stroke-opacity="0.05" stroke-width="0.5" stroke-linecap="round" stroke-linejoin="round"/>
<path d="M2147.87 394.988C2022.67 404.181 1964.22 451.756 1853.9 490.952C1727.92 532.142 1667.92 491.558 1582.51 405.082C1495.15 313.691 1445.4 244.098 1367.67 200.055C1272.92 153.349 1212.89 190.691 1084.99 299.541C924.417 444.169 831.316 710.973 610.087 567.8C523.239 507.686 426.173 401.793 304.79 350.131C66.0762 258.616 31.2623 484.167 -452.8 411.654C-517.356 401.689 -518.153 400.726 -565.876 394.988" stroke="#3DDEED" stroke-opacity="0.05" stroke-width="0.5" stroke-linecap="round" stroke-linejoin="round"/>
<path d="M2147.87 394.988C2021.52 403.709 1964.98 450.13 1853.9 489.01C1727.26 529.708 1667.75 487.87 1582.51 401.995C1498.69 314.871 1452.56 252.085 1378.99 207.736C1274.95 152.707 1212.51 201.811 1084.99 313.007C975.386 413.56 902.161 564.03 779.696 604.997C609.689 648.207 512.685 408.07 293.48 328.793C116.097 272.734 17.877 404.963 -181.426 420.112C-388.949 434.028 -421.216 412.794 -565.876 394.988" stroke="#3DDEED" stroke-opacity="0.05" stroke-width="0.5" stroke-linecap="round" stroke-linejoin="round"/>
<path d="M2147.87 394.988C2020.46 403.202 1965.41 448.644 1853.9 487.068C1727.13 527.139 1667.43 484.043 1582.51 398.913C1499.22 312.872 1452.28 250.531 1378.99 209.01C1280.29 160.533 1218.28 201.966 1073.69 337.033C970.122 438.922 897.419 578.226 779.696 609.301C612.148 639.713 524.952 400.825 304.79 315.648C122.65 253.706 19.9682 401.332 -181.426 418.651C-386.392 434.23 -420.082 413.374 -565.876 394.998" stroke="#3DDEED" stroke-opacity="0.05" stroke-width="0.5" stroke-linecap="round" stroke-linejoin="round"/>
<path d="M2147.87 394.988C2019.78 402.642 1964.88 447.458 1853.9 484.949C1727.47 524.057 1667.94 480.713 1582.51 395.547C1496.66 307.496 1444.73 239.908 1367.67 204.939C1281.45 172.554 1220.83 203.732 1062.38 360.976C959.143 468.754 885.727 600.517 768.391 613.532C603.933 617.826 512.374 364.545 293.485 294.823C117.365 247.486 15.8739 397.494 -181.421 416.543C-384.534 434.064 -418.328 413.835 -565.871 394.982" stroke="#3DDEED" stroke-opacity="0.05" stroke-width="0.5" stroke-linecap="round" stroke-linejoin="round"/>
<path d="M2147.87 394.988C2019 402.047 1965.2 445.914 1853.9 482.52C1727.25 520.566 1667.79 476.109 1582.51 391.683C1495.67 303.353 1444.39 238.091 1367.67 206.068C1268.9 172.673 1209.78 231.005 1073.7 360.743C968.771 465.087 896.389 597.674 779.701 612.838C610.31 620.322 530.05 359.645 304.795 281.285C125.223 227.934 19.1399 388.141 -170.111 412.079C-375.507 434.411 -420.01 413.648 -565.865 394.988" stroke="#3DDEED" stroke-opacity="0.05" stroke-width="0.5" stroke-linecap="round" stroke-linejoin="round"/>
<path d="M2147.87 394.988C2018.41 401.436 1964.94 444.562 1853.9 480.086C1727.72 516.863 1668.39 472.26 1582.51 387.814C1500.35 304.927 1451.55 244.891 1378.99 211.506C1272.19 170.813 1212.25 238.79 1073.69 371.738C968.124 476.953 895.892 605.867 779.696 613.403C609.373 609.554 531.35 338.473 304.79 264.147C125.021 214.588 19.9112 382.247 -170.116 408.702C-370.657 432.951 -411.221 414.798 -565.871 394.988" stroke="#3DDEED" stroke-opacity="0.05" stroke-width="0.5" stroke-linecap="round" stroke-linejoin="round"/>
<path d="M2147.87 394.988C2018.73 400.752 1961.96 444.065 1853.9 477.652C1727.82 513.269 1668.61 468.003 1582.51 383.946C1500.21 301.618 1451.34 242.949 1378.99 212.216C1270.07 174.677 1210.65 250.484 1073.69 382.723C967.472 488.808 895.328 614.003 779.696 613.952C608.54 598.684 532.623 317.228 304.79 246.999C122.764 200.692 21.3243 379.839 -181.426 406.822C-375.46 430.449 -402.743 415.875 -565.876 394.982" stroke="#3DDEED" stroke-opacity="0.05" stroke-width="0.5" stroke-linecap="round" stroke-linejoin="round"/>
<path d="M2147.87 394.988C1973.28 401.912 1889.01 492.138 1763.43 487.166C1603.67 470.904 1516.55 255.342 1367.67 209.445C1261.22 185.429 1201.93 259.04 960.618 516.247C814.618 666.53 731.595 637.962 598.783 480.299C515.273 379.005 384.599 191.597 203.029 228.794C59.3162 265.229 -13.7693 381.185 -192.725 405.103C-372.008 428.067 -398.214 416.491 -565.865 394.993" stroke="#3DDEED" stroke-opacity="0.05" stroke-width="0.5" stroke-linecap="round" stroke-linejoin="round"/>
<path d="M2147.87 394.988C2016.67 399.478 1963.9 440.512 1853.9 472.566C1727.93 505.733 1668.85 458.966 1582.51 375.856C1506.62 301.255 1452.41 239.334 1378.99 213.205C1264.98 182 1205.24 276.525 1084.99 392.025C972.047 502.03 903.46 618.815 791.005 614.972C614.901 592.805 547.064 291.508 316.099 216.266C133.318 166.976 26.8367 357.563 -158.807 395.966C-358.752 431.547 -432.686 411.866 -565.871 394.982" stroke="#3DDEED" stroke-opacity="0.05" stroke-width="0.5" stroke-linecap="round" stroke-linejoin="round"/>
<path d="M2147.87 394.988C2016.27 398.717 1963.64 438.943 1853.9 469.552C1729.99 500.632 1671.44 455.957 1582.51 371.05C1509.4 299.857 1453.2 236.879 1378.99 212.759C1263.64 184.787 1203.05 285.117 1084.99 398.587C971.757 508.328 902.787 621.596 791.005 612.072C612.986 580.494 548.394 272.092 316.099 200.272C135.042 154.634 24.0779 350.53 -158.807 390.886C-359.212 429.227 -432.945 411.317 -565.871 394.993" stroke="#3DDEED" stroke-opacity="0.05" stroke-width="0.5" stroke-linecap="round" stroke-linejoin="round"/>
<path d="M2147.87 394.988C2015.81 397.935 1963.59 437.291 1853.9 466.532C1729.42 496.167 1670.85 449.902 1582.51 366.233C1510.61 296.91 1453.55 234.237 1378.99 212.298C1262.49 187.687 1202.3 293.036 1084.99 405.128C974.071 512.104 908.475 615.283 802.315 610.689C621.858 586.119 558.172 268.207 327.409 187.563C143.567 133.767 33.0531 333.957 -147.497 383.133C-344.15 429.274 -455.911 408.184 -565.871 394.988" stroke="#3DDEED" stroke-opacity="0.05" stroke-width="0.5" stroke-linecap="round" stroke-linejoin="round"/>
<path d="M2147.87 394.988C1972 397.857 1887.61 481.857 1763.43 471.188C1604.99 447.799 1515.91 236.464 1367.67 209.818C1246.56 198.361 1199.68 309.822 960.619 536.684C803.246 678.991 716.621 592.582 598.783 429.517C514.082 310.076 389.645 116.261 203.029 174.097C62.0751 224.992 -16.3987 352.829 -181.421 385.396C-360.242 418.584 -393.747 414.922 -565.871 394.988" stroke="#3DDEED" stroke-opacity="0.05" stroke-width="0.5" stroke-linecap="round" stroke-linejoin="round"/>
<path d="M2147.87 394.988C2014.91 396.355 1963 434.152 1853.9 460.499C1730.52 486.798 1672.36 440.347 1582.51 356.615C1513.38 291.099 1454.14 228.872 1378.99 211.397C1262.82 194.146 1201.18 305.497 1096.31 407.454C968.667 529.21 901.053 629.525 791.005 603.334C606.738 542.07 544.015 197.595 304.79 149.998C126.201 125.398 21.1586 333.967 -170.116 378.223C-358.705 417.916 -405.574 413.047 -565.871 394.988" stroke="#3DDEED" stroke-opacity="0.05" stroke-width="0.5" stroke-linecap="round" stroke-linejoin="round"/>
<path d="M2147.87 394.988C2014.48 395.495 1963.03 432.381 1853.9 457.231C1730.31 481.889 1672.14 434.24 1582.51 351.426C1518.16 291.146 1456.06 226.132 1378.99 210.387C1262.27 196.388 1200.29 311.205 1096.31 412.022C969.102 532.421 900.582 629.774 791.005 598.922C605.532 529.122 544.269 178.981 304.79 135.202C123.716 113.335 22.8667 329.85 -181.426 375.447C-354.989 412.188 -389.989 413.622 -565.871 394.988" stroke="#3DDEED" stroke-opacity="0.05" stroke-width="0.5" stroke-linecap="round" stroke-linejoin="round"/>
<path d="M2147.87 394.988C1968.62 394.304 1888.15 473.151 1763.43 457.572C1610.43 429.123 1523.13 234.413 1378.99 208.518C1299.75 200.956 1246.71 253.141 1198.08 304.513C966.457 556.815 893.832 615.837 802.32 595.773C596.159 531.075 508.917 53.9046 225.648 128.215C79.2802 174.946 -6.38825 325.09 -170.106 367.051C-355.755 410.748 -402.236 410.732 -565.871 394.988" stroke="#3DDEED" stroke-opacity="0.05" stroke-width="0.5" stroke-linecap="round" stroke-linejoin="round"/>
<path d="M2147.87 394.988C2014.31 393.475 1961.74 428.761 1853.9 449.938C1720.86 472.349 1665.86 415.896 1548.58 308.864C1499.36 264.535 1441.2 211.071 1367.67 205.856C1253.67 207.565 1196.02 323.194 1084.99 425.529C972.28 528.734 905.618 615.448 802.315 589.449C615.3 524.694 558.177 177.096 327.409 112.766C142.19 72.4873 28.4672 302.017 -158.807 358.148C-360.429 412.281 -433.742 406.532 -565.871 394.988" stroke="#3DDEED" stroke-opacity="0.05" stroke-width="0.5" stroke-linecap="round" stroke-linejoin="round"/>
<path d="M2147.87 394.988C2008.18 392.362 1950.59 431.506 1842.58 448.022C1718.22 463.145 1665.98 408.888 1548.58 303.472C1308.3 90.4849 1271.45 258.683 1062.38 447.323C961.121 540.133 888.485 624.931 779.696 573.487C595.331 469.06 539.186 128.308 304.79 95.229C124.534 81.2919 23.3273 305.041 -181.426 358.252C-348.819 399.934 -389.937 408.723 -565.871 394.988" stroke="#3DDEED" stroke-opacity="0.05" stroke-width="0.5" stroke-linecap="round" stroke-linejoin="round"/>
<path d="M2147.87 394.988C2006.49 391.269 1952.33 429.123 1842.58 444.2C1714.87 457.743 1658.72 395.573 1548.58 298.081C1307.75 87.9626 1270.07 264.302 1062.38 448.354C958.667 541.469 882.383 627.863 768.391 559.664C586.293 433.987 527.271 95.9074 293.485 81.1935C182.004 81.3385 106.573 165.277 -11.8127 261.21C-111.265 339.773 -141.358 342.119 -249.263 370.138C-378.943 403.093 -437.174 403.953 -565.871 394.988" stroke="#3DDEED" stroke-opacity="0.05" stroke-width="0.5" stroke-linecap="round" stroke-linejoin="round"/>
<path d="M2147.87 394.982C2007.8 390.166 1949.75 427.192 1842.58 440.155C1626.34 459.592 1538.14 200.645 1367.67 200.573C1252.44 210.356 1195.04 330.947 1084.99 427.699C963.372 533.121 891.912 617.644 779.69 558.41C589.554 440.388 533.311 81.7425 293.475 69.53C181.714 71.089 105.75 156.897 -11.8231 253.581C-111.042 333.154 -141.038 335.8 -249.274 365.213C-379.244 400.011 -437.578 402.539 -565.871 394.993" stroke="#3DDEED" stroke-opacity="0.05" stroke-width="0.5" stroke-linecap="round" stroke-linejoin="round"/>
<path d="M2147.87 394.972C2013.12 389.234 1960.35 420.64 1853.9 434.634C1719.78 448.535 1667.36 388.477 1548.58 286.35C1497.76 243.43 1441 196.497 1367.67 197.755C1252.54 209.476 1194.45 330.58 1084.99 424.358C965.401 525.155 892.16 609.606 779.696 549.083C590.243 429.734 532.033 69.8304 293.48 59.8916C181.854 62.4605 105.802 148.911 -11.8179 246.481C-97.8073 316.042 -131.524 327.001 -204.045 347.345C-356.102 390.316 -403.918 402.321 -565.871 395.003" stroke="#3DDEED" stroke-opacity="0.05" stroke-width="0.5" stroke-linecap="round" stroke-linejoin="round"/>
<path d="M2147.87 394.957C2012.29 388.027 1960.8 418.289 1853.9 430.47C1726.53 441.45 1674.56 388.415 1559.9 289.861C1509.53 247.185 1452.15 198.014 1378.99 194.534C1260.89 198.657 1198.85 322.247 1096.31 411.566C890.359 583.369 817.186 663.816 610.093 341.57C534.476 221.543 457.907 65.5318 304.795 50.6158C124.69 44.7479 25.227 273.065 -181.421 335.231C-343.943 382.351 -391.092 400.524 -565.871 395.014" stroke="#3DDEED" stroke-opacity="0.05" stroke-width="0.5" stroke-linecap="round" stroke-linejoin="round"/>
<path d="M2147.87 394.946C2012.01 386.867 1960.41 416.041 1853.9 426.321C1726.28 435.116 1675.25 381.491 1559.9 283.662C1509.01 241.188 1452.06 193.659 1378.99 191.525C1260.87 197.709 1198.68 321.506 1096.31 408.49C887.921 577.625 815.172 650.874 610.093 331.481C531.743 207.031 456.68 54.3188 304.795 40.879C124.907 36.658 25.5065 265.364 -181.421 329.466C-343.855 378.135 -392.717 398.121 -565.871 395.024" stroke="#3DDEED" stroke-opacity="0.05" stroke-width="0.5" stroke-linecap="round" stroke-linejoin="round"/>
<path d="M2147.87 394.936C2011.87 385.686 1959.46 413.824 1853.9 422.163C1634.13 433.474 1549.19 190.375 1378.99 188.5C1257.61 196.989 1197.43 325.608 1084.99 414.327C965.23 506.692 891.808 584.86 779.696 521.105C586.619 394.035 530.661 34.3792 293.48 30.9713C182.397 36.6114 106.284 124.683 -11.8179 225.184C-99.7172 298.179 -131.115 308.139 -215.35 334.174C-358.41 379.295 -411.428 395.687 -565.871 395.029" stroke="#3DDEED" stroke-opacity="0.05" stroke-width="0.5" stroke-linecap="round" stroke-linejoin="round"/>
<path d="M2147.87 394.915C2011.22 384.438 1959.27 411.462 1853.9 417.916C1721.48 422.422 1672.98 362.685 1548.58 262.054C1307.88 72.1662 1261.84 277.752 1062.38 426.327C961.436 502.274 888.253 573.368 779.696 511.586C588.146 385.629 535.817 40.3248 304.79 23.446C125.264 22.0217 26.5883 250.634 -181.426 318.336C-340.801 368.735 -395.175 393.315 -565.871 395.029" stroke="#3DDEED" stroke-opacity="0.05" stroke-width="0.5" stroke-linecap="round" stroke-linejoin="round"/>
<path d="M2147.87 394.889C2010.1 383.153 1959.38 408.966 1853.9 413.57C1635.87 417.149 1550.16 178.722 1378.99 181.814C1257.81 193.555 1197.4 320.361 1084.99 402.824C964.221 489.253 896.865 557.944 791.005 508.147C592.07 397.147 534.269 19.3493 293.485 18.2202C182.521 24.9117 106.656 112.859 -11.8127 213.945C-99.6292 287.085 -130.939 297.335 -215.345 324.36C-358.146 370.858 -412.246 391.155 -565.871 395.008" stroke="#3DDEED" stroke-opacity="0.05" stroke-width="0.5" stroke-linecap="round" stroke-linejoin="round"/>
<path d="M2147.87 394.863C2008.84 381.817 1959.28 406.496 1853.9 409.22C1638.07 408.997 1549.78 173.03 1378.99 178.349C1260.75 191.23 1199.44 311.464 1096.31 388.198C897.647 528.024 819.629 610.373 621.397 316.482C515.966 157.032 457.658 32.4267 316.099 13.8594C135.078 1.82827 27.6493 235.299 -170.116 304.907C-351.852 365.441 -410.269 388.747 -565.871 394.988" stroke="#3DDEED" stroke-opacity="0.05" stroke-width="0.5" stroke-linecap="round" stroke-linejoin="round"/>
<path d="M2147.87 394.837C2007.4 380.414 1960.19 403.999 1853.9 404.869C1639.18 400.84 1550.47 167.323 1378.99 174.879C1261.15 189.111 1198.81 308.631 1096.31 381.869C897.87 515.636 819.743 599.709 621.397 309.547C513.135 147.906 456.308 26.5897 316.099 8.64918C135.471 -2.74494 27.8771 229.612 -170.116 300.028C-355.139 362.338 -413.012 386.535 -565.871 394.972" stroke="#3DDEED" stroke-opacity="0.05" stroke-width="0.5" stroke-linecap="round" stroke-linejoin="round"/>
<path d="M2147.87 394.812C2000.93 378.451 1947.64 403.917 1842.58 400.11C1633.04 386.168 1534.58 138.009 1356.37 175.283C1275.11 198.408 1223.71 262.692 1152.83 330.202C1111.19 368.356 1102.82 371.127 1051.06 404.295C943.113 475.218 870.488 536.083 757.081 457.951C567.892 312.308 503.321 -25.9216 270.871 5.117C159.928 26.9109 84.1095 121.663 -34.4268 217.296C-118.491 282.885 -150.556 288.318 -226.649 314.1C-359.937 359.863 -421.485 384.816 -565.871 394.951" stroke="#3DDEED" stroke-opacity="0.05" stroke-width="0.5" stroke-linecap="round" stroke-linejoin="round"/>
<path d="M2147.87 394.786C1999.98 377.063 1947.07 401.229 1842.58 395.697C1718.08 385.349 1677.01 327.312 1548.58 231.762C1313.02 62.4657 1261.74 269.891 1062.38 389.068C960.531 451.451 888.315 518.36 779.696 463.585C580.325 346.77 524.771 -1.0876 293.485 0.134683C183.091 7.81018 106.993 94.7059 -11.8127 195.119C-96.9843 265.421 -130.499 278.094 -204.04 302.509C-346.541 350.224 -411.842 382.092 -565.871 394.926" stroke="#3DDEED" stroke-opacity="0.05" stroke-width="0.5" stroke-linecap="round" stroke-linejoin="round"/>
<path d="M2147.87 394.76C1957.32 370.325 1874.38 419.21 1752.13 369.76C1611.86 305.492 1513.26 144.99 1367.67 166.934C1289.21 184.533 1233.29 244.689 1175.46 298.909C1118.55 351.172 1129.69 339.866 983.228 428.952C922.254 464.725 871.503 486.99 802.31 465.201C579.585 377.265 509.926 -74.5694 236.947 10.9539C93.5195 64.1541 -0.927531 223.128 -158.807 284.045C-350.423 352.498 -433.747 382.019 -565.871 394.894" stroke="#3DDEED" stroke-opacity="0.05" stroke-width="0.5" stroke-linecap="round" stroke-linejoin="round"/>
<path d="M2147.87 394.734C1994.38 373.743 1948.27 396.096 1842.58 387.172C1711.19 372.137 1666.89 302.607 1537.29 213.194C1313.45 66.3397 1250.32 271.6 1073.7 365.586C961.913 425.633 891.793 497.11 779.701 447.147C579.187 342.046 520.537 0.290053 293.485 0.155396C183.479 7.11099 106.863 92.6032 -11.8127 190.821C-99.2566 261.511 -130.779 272.247 -215.345 299.93C-350.869 345.206 -423.167 378.927 -565.871 394.858" stroke="#3DDEED" stroke-opacity="0.05" stroke-width="0.5" stroke-linecap="round" stroke-linejoin="round"/>
<path d="M2147.87 394.713C2001.29 373.442 1956.25 391.652 1853.9 384.044C1728.36 371.454 1692.31 319.921 1559.9 223.558C1316.26 52.2109 1255.61 264.266 1084.99 351.586C908.542 439.756 825.265 556.769 621.397 290.208C502.985 131.297 451.711 18.8624 316.099 0.973646C137.562 -11.1041 28.1877 212.205 -170.116 281.973C-379.958 351.964 -432.997 378.135 -565.871 394.822" stroke="#3DDEED" stroke-opacity="0.05" stroke-width="0.5" stroke-linecap="round" stroke-linejoin="round"/>
<path d="M2147.87 394.687C1993.01 371.065 1945.73 390.622 1842.58 378.642C1717.06 360.355 1680.16 300.955 1548.58 210.211C1317.21 57.2451 1256.07 263.665 1073.69 348.873C896.136 433.344 817.662 544.22 610.082 272.9C505.464 133.006 444.548 10.0941 304.795 0.253749C128.717 -0.880484 27.2715 213.604 -181.421 282.657C-363.172 341.13 -425.02 375.115 -565.871 394.791" stroke="#3DDEED" stroke-opacity="0.05" stroke-width="0.5" stroke-linecap="round" stroke-linejoin="round"/>
<path d="M2147.87 394.672C1992.7 369.713 1945.04 388.115 1842.58 374.779C1710.75 353.751 1667.5 282.46 1537.29 198.304C1317.24 63.9366 1252.73 263.033 1073.7 340.897C961.633 390.808 892.74 463.777 779.701 424.022C577.406 337.96 514.15 5.43297 293.485 2.745C183.919 8.32294 107.05 91.1271 -11.8127 185.994C-99.1479 254.084 -131.053 264.768 -215.345 291.368C-362.504 338.763 -431.527 374.188 -565.871 394.765" stroke="#3DDEED" stroke-opacity="0.05" stroke-width="0.5" stroke-linecap="round" stroke-linejoin="round"/>
<path d="M2147.87 394.667C1990.91 368.191 1945.17 385.903 1842.58 371.303C1716.16 349.598 1678.08 287.391 1548.58 201.764C1320.44 57.7423 1251.75 260.309 1084.99 328.741C914.718 397.292 826.585 532.908 621.397 289.991C496.375 137.18 450.008 28.8427 316.099 9.05314C138.592 -5.89388 29.0106 209.553 -170.116 276.194C-411.118 352.374 -440.864 374.059 -565.871 394.744" stroke="#3DDEED" stroke-opacity="0.05" stroke-width="0.5" stroke-linecap="round" stroke-linejoin="round"/>
<path d="M2147.87 394.661C1995.56 367.776 1941.51 383.127 1842.58 367.828C1644.5 331.434 1542.55 108.239 1356.37 156.146C1275.5 181.949 1230.7 234.025 1152.83 287.557C1114.39 312.266 1106.8 312.909 1062.38 330.051C956.83 373.981 884.163 449.12 768.391 409.878C564.016 326.214 503.782 5.96117 282.176 13.3725C172.749 23.7774 95.8849 107.41 -23.1224 196.668C-108.32 258.766 -136.312 265.058 -226.654 292.352C-370.688 336.727 -439.462 372.215 -565.871 394.729" stroke="#3DDEED" stroke-opacity="0.05" stroke-width="0.5" stroke-linecap="round" stroke-linejoin="round"/>
<path d="M2147.87 394.651C1991.99 365.922 1942.96 381.113 1842.58 364.348C1644.69 325.603 1544.2 105.598 1356.37 154.732C1275.25 180.794 1229.67 232.616 1152.83 282.745C1114.05 306.264 1106.88 306.264 1062.38 322.102C898.284 385.976 812.631 518.857 598.778 268.72C498.611 148.403 433.523 23.3787 293.48 18.1167C184.323 20.8047 107.127 99.7245 -11.8179 189.277C-98.4491 252.955 -130.825 263.453 -215.35 287.712C-369.43 332.724 -437.919 370.325 -565.871 394.708" stroke="#3DDEED" stroke-opacity="0.05" stroke-width="0.5" stroke-linecap="round" stroke-linejoin="round"/>
<path d="M2147.87 394.646C1993.82 365.057 1940.74 378.477 1842.58 360.878C1715.2 334.402 1677.8 270.103 1548.58 190.251C1324.81 59.0734 1261.58 252.794 1073.69 310.469C913.563 362.706 820.705 513.994 610.082 284.832C490.78 150.434 439.522 38.4086 304.784 23.7619C130.57 15.7343 27.0851 216.747 -181.431 277.084C-386.009 333.858 -433.773 367.849 -565.871 394.687" stroke="#3DDEED" stroke-opacity="0.05" stroke-width="0.5" stroke-linecap="round" stroke-linejoin="round"/>
<path d="M2147.87 394.656C1990.39 363.343 1942.08 376.84 1842.58 358.034C1647.81 315.669 1547.2 101.547 1356.37 153.033C1279.81 177.987 1238.19 221.507 1164.14 267.746C1118.66 294.274 1110.12 293.326 1062.38 307.558C904.443 360.769 812.33 508.893 598.778 277.815C491.349 157.71 431.131 38.3723 293.48 30.5776C184.7 31.1214 107.748 106.887 -11.8179 193.016C-98.9615 254.286 -132.052 264.235 -215.35 286.329C-378.188 330.171 -438.007 367.279 -565.871 394.687" stroke="#3DDEED" stroke-opacity="0.05" stroke-width="0.5" stroke-linecap="round" stroke-linejoin="round"/>
<path d="M2147.87 394.682C1986.72 361.681 1943.83 375.659 1842.58 355.766C1654.38 313.499 1553.47 110.383 1367.67 150.672C1286.23 172.942 1240.69 220.222 1164.14 265.623C1118.28 290.871 1110.1 289.214 1062.38 302.172C906.943 350.872 811.606 506.231 598.778 285.645C485.154 163.563 429.252 49.3003 293.48 39.9157C122.055 38.6053 27.2249 225.837 -192.736 281.471C-394.373 331.73 -427.836 363.721 -565.871 394.708" stroke="#3DDEED" stroke-opacity="0.05" stroke-width="0.5" stroke-linecap="round" stroke-linejoin="round"/>
<path d="M2147.87 394.708C1947.69 352.539 1869.96 381.216 1752.13 320.802C1624.63 249.428 1515.51 110.362 1356.37 154.494C1279.47 179.836 1236.09 223.087 1164.14 263.51C1083.04 305.492 1089.46 275.303 983.228 329.886C913.631 366.528 862.75 397.375 791 398.126C550.216 386.043 485.04 -10.7156 225.638 57.7113C84.8445 101.998 -6.07249 232.911 -170.116 277.079C-440.398 344.657 -427.401 362.261 -565.871 394.724" stroke="#3DDEED" stroke-opacity="0.05" stroke-width="0.5" stroke-linecap="round" stroke-linejoin="round"/>
<path d="M2147.87 394.729C1986.24 359.733 1930.79 372.319 1831.28 348.526C1648.97 299.479 1544.01 92.9916 1345.06 158.969C1265.21 189.401 1227.28 230.762 1152.83 266.871C1112.5 284.387 1105.95 281.88 1062.38 291.394C905.209 333.242 806.606 506.521 587.473 290.151C478.171 178.007 419.553 62.7816 282.176 58.224C173.546 61.1088 96.6148 135.191 -23.1224 212.469C-102.435 262.122 -134.749 270.999 -215.345 288.675C-384.704 326.421 -433.126 362.292 -565.871 394.739" stroke="#3DDEED" stroke-opacity="0.05" stroke-width="0.5" stroke-linecap="round" stroke-linejoin="round"/>
<path d="M2147.87 394.755C1985.7 358.692 1930.57 370.635 1831.28 346.179C1653.02 296.967 1550.42 100.714 1356.37 155.949C1278.28 181.985 1236.29 223.237 1164.14 259.263C1125.82 276.597 1116.15 277.121 1073.69 283.838C918.915 313.54 815.892 494.484 610.082 319.32C482.307 204.4 445.671 100.817 316.094 71.0423C141.538 41.7698 29.9579 231.549 -170.122 279.954C-440.662 340.063 -418.24 357.201 -565.871 394.755" stroke="#3DDEED" stroke-opacity="0.05" stroke-width="0.5" stroke-linecap="round" stroke-linejoin="round"/>
<path d="M2147.87 394.791C1981.88 357.195 1932.43 369.988 1831.28 344.672C1652.86 294.735 1547.5 93.9705 1345.06 161.879C1259.45 194.55 1218.53 239.318 1141.53 267.819C1098.17 281.264 1095.76 275.246 1051.06 285.148C896.312 328.788 794.235 503.859 576.164 297.62C475.179 198.082 421.457 93.986 293.48 78.7023C123.308 68.6134 25.6152 244.513 -192.736 286.925C-400.232 325.898 -413.908 354.901 -565.871 394.791" stroke="#3DDEED" stroke-opacity="0.05" stroke-width="0.5" stroke-linecap="round" stroke-linejoin="round"/>
<path d="M2147.87 394.837C1990.01 358.387 1942.84 369.227 1842.58 346.708C1713.34 314.172 1678.43 248.097 1548.58 181.736C1331.94 78.578 1259.95 261.252 1084.99 278.053C923.361 295.455 820.778 488.192 621.397 346.936C489.129 246.144 457.379 138.397 327.409 97.1919C153.013 52.6616 33.726 237.666 -158.807 283.253C-302.84 313.535 -240.914 286.257 -486.719 370.899C-520.394 382.247 -533.572 386.157 -565.871 394.832" stroke="#3DDEED" stroke-opacity="0.05" stroke-width="0.5" stroke-linecap="round" stroke-linejoin="round"/>
<path d="M2147.87 394.879C1948.68 348.215 1869.96 373.499 1752.13 311.681C1632.89 243.798 1526.82 121.7 1367.67 161.32C1289.34 184.492 1247.55 222.455 1175.46 256.073C1086.73 293.357 1087.11 258.704 994.547 301.882C851.611 373.551 766.124 460.556 610.087 348.448C472.7 242.467 412.032 80.225 236.947 103.992C97.5672 130.022 -0.378873 251.769 -158.807 286.681C-223.782 299.282 -266.323 299.65 -362.339 328.239C-446.724 354.362 -476.03 370.19 -565.871 394.879" stroke="#3DDEED" stroke-opacity="0.05" stroke-width="0.5" stroke-linecap="round" stroke-linejoin="round"/>
<path d="M2147.87 394.926C2000.17 359.847 1951.23 367.652 1853.9 347.692C1720.77 317.342 1688.75 255.213 1559.9 189.096C1335.53 81.4991 1265.45 267.689 1084.99 275.655C920.209 285.433 815.177 496.96 610.087 358.578C482.183 265.276 453.849 165.23 327.404 121.912C216.952 90.8578 127.448 151.428 22.1058 213.697C-193.678 339.193 -139.904 249.884 -486.724 370.376C-522.371 382.547 -533.401 385.8 -565.876 394.92" stroke="#3DDEED" stroke-opacity="0.05" stroke-width="0.5" stroke-linecap="round" stroke-linejoin="round"/>
<path d="M2147.87 394.967C1957.46 349.1 1878.11 370.63 1763.43 315.902C1652 257.538 1545.97 136.341 1390.29 162.454C1308.24 180.074 1260.96 219.834 1186.76 253.902C1093.43 292.933 1091.86 256.632 1005.85 291.664C877.455 350.39 779.727 466.626 621.402 375.851C473.244 282.357 423.688 115.759 248.262 124.973C109.089 139.516 8.73611 257.383 -147.492 291.425C-214.734 304.031 -256.582 300.712 -351.024 325.442C-436.164 349.023 -463.634 365.456 -565.871 394.967" stroke="#3DDEED" stroke-opacity="0.05" stroke-width="0.5" stroke-linecap="round" stroke-linejoin="round"/>
<path d="M2147.87 394.988C1943.35 345.843 1863.77 373.256 1740.82 303.98C1607.37 223.392 1514.97 127.35 1356.38 176.039C1274.73 204.302 1235.39 240.841 1164.15 265.618C1079.13 290.56 1078.67 254.907 983.233 302.219C853.935 371.065 756.393 474.254 598.783 371.78C463.658 276.385 405.101 114.138 225.643 139.2C86.7544 165.179 -6.90586 275.619 -170.111 299.256C-238.849 307.781 -282.105 306.792 -373.643 332.486C-453.473 356.04 -469.917 367.196 -565.871 394.993" stroke="#3DDEED" stroke-opacity="0.05" stroke-width="0.5" stroke-linecap="round" stroke-linejoin="round"/>
<path d="M2147.87 394.988C1990.5 357.75 1929.78 366.927 1831.28 342.362C1661.84 295.362 1561.69 118.297 1356.37 181.954C1276.08 209.885 1233.52 246.937 1164.14 269.782C1124.24 280.715 1113.84 278.068 1073.69 277.929C919.702 284.951 808.314 500.357 610.082 389.752C482.519 311.075 454.781 207.715 327.398 159.746C218.955 125.47 132.184 177.779 22.1006 236.06C-199.149 351.037 -186.825 268.953 -441.501 354.746C-513.023 379.336 -517.77 381.237 -565.881 394.988" stroke="#3DDEED" stroke-opacity="0.05" stroke-width="0.5" stroke-linecap="round" stroke-linejoin="round"/>
<path d="M2147.87 394.988C1995.26 359.438 1939.04 367.051 1842.58 345.941C1713.94 314.483 1677.28 248.304 1548.58 194.777C1335.07 113.553 1264.51 288.183 1084.99 280.523C917.787 276.939 812.149 506.122 610.087 400.379C482.446 325.965 455.2 222.025 327.404 172.58C220.13 137.553 132.542 187.677 33.4155 238.272C-203.026 358.019 -187.052 273.071 -430.186 351.421C-492.676 372.039 -503.644 377.353 -565.876 394.988" stroke="#3DDEED" stroke-opacity="0.05" stroke-width="0.5" stroke-linecap="round" stroke-linejoin="round"/>
<path d="M2147.87 394.988C1989.43 358.661 1941.51 367.906 1842.58 346.702C1664.21 303.918 1573.13 133.125 1367.67 190.209C1283.4 216.872 1235.64 257.222 1164.14 278.115C1124.46 287.432 1114.6 284.247 1073.69 282.631C916.933 284.63 801.451 516.143 598.778 404.792C475.076 329.492 445.8 225.324 316.094 181.607C210.679 152.329 129.684 199.63 22.1058 251.94C-203.424 360.039 -195.427 276.064 -441.496 355.559C-507.2 377.228 -510.28 379.373 -565.876 394.982" stroke="#3DDEED" stroke-opacity="0.05" stroke-width="0.5" stroke-linecap="round" stroke-linejoin="round"/>
<path d="M2147.87 394.988C1990.3 359.438 1939.63 367.839 1842.58 347.464C1664.44 305.601 1575.05 137.532 1367.67 196.088C1281.72 223.542 1236.49 262.49 1164.14 282.279C1124.37 290.851 1114.57 287.329 1073.69 284.983C919.019 284.392 805.529 510.379 610.082 421.629C483.068 356.113 455.277 250.298 327.398 198.253C221.119 161.32 134.255 207.15 33.4103 254.607C-207.653 366.968 -194.278 280.005 -430.191 352.389C-491.465 371.764 -502.63 377.389 -565.881 394.982" stroke="#3DDEED" stroke-opacity="0.05" stroke-width="0.5" stroke-linecap="round" stroke-linejoin="round"/>
<path d="M2147.87 394.988C1979.04 358.112 1930.17 368.942 1831.28 346.532C1709.72 315.716 1675.74 254.565 1548.58 207.756C1335.6 136.869 1265.61 307.465 1084.99 290.043C919.878 278.162 809.189 515.993 610.087 431.102C486.655 370.806 460.272 272.376 338.713 214.878C168.784 144.648 50.5584 290.255 -136.193 318.227C-231.597 329.596 -277.328 309.526 -418.877 349.877C-484.395 369.356 -495.627 375.809 -565.871 394.988" stroke="#3DDEED" stroke-opacity="0.05" stroke-width="0.5" stroke-linecap="round" stroke-linejoin="round"/>
<path d="M2147.87 394.988C1977.1 358.816 1931.01 370.366 1831.28 348.862C1708.96 319.237 1676.68 259.403 1548.58 214.277C1335.37 146.601 1265.65 315.379 1084.99 295.672C918.486 281.683 809.318 520.116 610.087 439.787C486.458 382.257 460.334 284.19 338.713 226.272C169.002 155.457 50.605 298.246 -136.193 323.458C-233.518 333.656 -277.473 312.344 -418.877 351.074C-482.102 369.201 -496.574 376.545 -565.871 394.977" stroke="#3DDEED" stroke-opacity="0.05" stroke-width="0.5" stroke-linecap="round" stroke-linejoin="round"/>
<path d="M2147.87 394.988C1979.02 360.334 1929.42 371.288 1831.28 351.193C1667.25 313.318 1574.69 160.056 1367.67 219.876C1233.83 263.064 1209.69 316.472 1084.99 301.312C919.712 285.412 808.159 523.726 610.087 448.488C486.515 393.853 460.319 295.999 338.713 237.676C169.188 166.292 50.8638 306.227 -136.193 328.705C-234.439 337.572 -278.114 315.301 -418.877 352.286C-481.931 369.693 -496.289 376.969 -565.871 394.988" stroke="#3DDEED" stroke-opacity="0.05" stroke-width="0.5" stroke-linecap="round" stroke-linejoin="round"/>
<path d="M2147.87 394.988C1981.49 361.955 1941.79 372.588 1842.58 355.714C1669.72 322.226 1582.96 172.341 1378.99 224.832C1294.78 249.324 1246.49 286.065 1175.46 305.554C1137.58 313.872 1123.21 312.075 1084.99 306.952C914.681 288.541 802.91 537.994 598.783 452.445C473.942 392.388 447.136 288.245 316.099 240.116C213.22 208.16 136.03 245.89 22.111 291.187C-209.848 381.745 -207.881 294.916 -441.491 359.63C-498.08 375.835 -508.784 380.61 -565.871 394.993" stroke="#3DDEED" stroke-opacity="0.05" stroke-width="0.5" stroke-linecap="round" stroke-linejoin="round"/>
<path d="M2147.87 394.988C1917.64 350.794 1855 383.827 1729.5 320.133C1594.43 247.543 1509.59 190.339 1356.38 240.028C1270.25 270.331 1222.88 306.098 1152.83 316.389C1075.87 322.801 1065.3 288.914 971.918 335.412C841.772 405.967 740.389 526.279 587.479 456.216C449.356 384.355 404.573 225.433 214.338 240.173C75.7139 256.445 -14.4059 342.595 -181.416 340.166C-251.768 337.939 -292.53 331.388 -373.643 344.978C-447.624 358.873 -480.176 373.991 -565.871 394.988" stroke="#3DDEED" stroke-opacity="0.05" stroke-width="0.5" stroke-linecap="round" stroke-linejoin="round"/>
<path d="M2147.87 394.988C1916.69 352.705 1854.36 386.002 1729.5 324.862C1594.34 254.664 1510.01 199.853 1356.38 249.36C1269.45 279.679 1222.83 314.312 1152.83 323.831C1076.42 329.373 1064.95 295.724 971.918 340.964C842.584 409.614 740.182 530.194 587.479 462.912C448.342 393.02 405.272 235.843 214.338 249.49C75.8433 264.815 -14.7113 349.023 -181.416 344.615C-251.344 341.58 -292.612 334.428 -373.643 346.982C-446.78 359.806 -481.16 374.986 -565.871 394.982" stroke="#3DDEED" stroke-opacity="0.05" stroke-width="0.5" stroke-linecap="round" stroke-linejoin="round"/>
<path d="M2147.87 394.988C1968.28 363.695 1920.57 378.176 1819.97 360.417C1666.78 329.062 1571.56 190.795 1356.38 259.351C1274.38 287.567 1230.5 318.098 1164.15 330.393C1124.48 335.412 1114.64 330.88 1073.7 325.302C914.832 312.354 795.819 544.877 598.783 472.944C473.642 419.609 447.41 317.875 316.099 269.668C209.426 236.35 129.379 275.81 10.8014 316.902C-210.546 391.336 -217.265 306.207 -452.8 366.021C-507.852 380.45 -513.443 383.138 -565.876 394.993" stroke="#3DDEED" stroke-opacity="0.05" stroke-width="0.5" stroke-linecap="round" stroke-linejoin="round"/>
<path d="M2147.87 394.988C1968.18 365.244 1920.48 380.17 1819.97 364.104C1666.78 335.427 1572.93 201.106 1356.38 269.331C1274.57 297.086 1230.34 326.882 1164.15 338.488C1124.38 343.134 1114.28 338.509 1073.7 332.682C914.671 318.461 795.405 547.099 598.783 477.968C473.326 426.301 447.576 326.022 316.099 278.27C209.08 245.155 127.997 284.428 10.8014 323.547C-214.641 396.479 -214.17 307.486 -464.105 370.055C-518.634 384.034 -521.667 385.427 -565.871 394.982" stroke="#3DDEED" stroke-opacity="0.05" stroke-width="0.5" stroke-linecap="round" stroke-linejoin="round"/>
<path d="M2147.87 394.988C1968.73 366.886 1935.02 381.77 1831.28 369.413C1668.44 346.159 1582.35 214.681 1367.67 275.8C1227.68 319.372 1205.81 362.975 1084.99 341.777C918.574 316.7 806.052 541.402 610.087 486.829C482.183 443.584 455.454 343.838 327.404 290.954C219.887 252.333 137.516 288.598 22.1058 326.576C-214.413 402.503 -211.887 312.981 -452.8 368.439C-509.55 381.988 -513.613 384.21 -565.876 394.982" stroke="#3DDEED" stroke-opacity="0.05" stroke-width="0.5" stroke-linecap="round" stroke-linejoin="round"/>
<path d="M2147.87 394.988C1914.2 360.355 1854.39 397.557 1729.5 346.475C1590.27 285.516 1510.28 241.949 1356.38 289.307C1266.47 318.979 1222.44 348.986 1152.83 355.792C1076.6 358.589 1064.58 326.007 971.918 365.679C839.153 428.295 733.21 548.12 576.169 478.724C443.854 412.535 397.13 266.861 203.029 284.889C67.4064 302.022 -20.3739 372.956 -181.421 362.131C-254.486 355.968 -298.109 346.174 -384.953 357.118C-454.141 367.181 -486.563 379.435 -565.871 394.993" stroke="#3DDEED" stroke-opacity="0.05" stroke-width="0.5" stroke-linecap="round" stroke-linejoin="round"/>
<path d="M2147.87 394.988C1914.16 362.468 1854.43 400.736 1729.5 352.565C1588.9 294.305 1509.86 253.675 1356.38 299.867C1268.65 328.099 1221.71 357.807 1152.83 363.939C1076.42 366.16 1064.72 334.122 971.918 371.987C838.78 431.982 733.018 548.347 576.169 480.946C443.01 416.134 397.482 273.992 203.029 291.881C67.4582 308.786 -20.6171 377.984 -181.421 366.047C-254.015 359.412 -297.747 349.256 -384.953 359.246C-455.228 368.652 -484.141 379.823 -565.871 394.993" stroke="#3DDEED" stroke-opacity="0.05" stroke-width="0.5" stroke-linecap="round" stroke-linejoin="round"/>
<path d="M2147.87 394.988C1956.68 370.148 1930.48 389.384 1819.97 379.937C1667.99 363.069 1578.38 245.849 1356.38 310.738C1268.3 338.229 1221.54 366.627 1152.83 372.168C1110.88 373.101 1103.79 366.668 1062.38 361.805C908.071 353.772 783.008 557.359 587.478 486.218C464.713 434.743 438.041 342.233 304.795 304.384C203.629 280.591 130.756 312.945 10.8065 347.671C-213.326 410.116 -216.297 324.562 -464.1 374.634C-518.934 386.059 -520.089 387.007 -565.865 394.993" stroke="#3DDEED" stroke-opacity="0.05" stroke-width="0.5" stroke-linecap="round" stroke-linejoin="round"/>
<path d="M2147.87 394.988C1961.82 372.541 1929.58 391.378 1819.97 384.272C1669.07 370.775 1579.54 258.315 1356.38 321.609C1268.29 348.251 1221.38 375.447 1152.83 380.403C1111 381.04 1103.87 374.768 1062.38 369.672C907.901 360.386 782.765 555.997 587.478 486.633C464.775 436.457 437.741 346.283 304.795 310.003C202.221 286.888 126.61 320.32 10.8065 352.803C-212.11 412.949 -217.022 329.021 -464.1 375.861C-519.266 386.649 -519.794 387.457 -565.865 394.988" stroke="#3DDEED" stroke-opacity="0.05" stroke-width="0.5" stroke-linecap="round" stroke-linejoin="round"/>
<path d="M2147.87 394.988C1912.11 368.735 1854.85 410.877 1729.5 371.956C1587.5 323.899 1511.32 289.856 1356.38 332.486C1268.9 358.097 1220.95 384.293 1152.83 388.638C1076.44 389.275 1064.9 359.635 971.918 391.14C842.662 439.989 738.8 539.507 587.478 487.047C443.756 429.797 407.627 297.06 214.338 309.314C75.3309 322.573 -15.9536 391.979 -181.416 377.047C-253.735 369.325 -297.685 358.604 -384.948 365.788C-454.099 372.728 -485.021 382.682 -565.865 394.993" stroke="#3DDEED" stroke-opacity="0.05" stroke-width="0.5" stroke-linecap="round" stroke-linejoin="round"/>
<path d="M2147.87 394.988C1909.5 370.646 1856.52 414.679 1729.5 378.42C1586.29 333.573 1511.64 301.965 1356.38 343.357C1266.73 368.709 1220.99 393.082 1152.83 396.868C1076.57 396.966 1064.88 368.144 971.918 397.52C842.683 443.231 738.66 538.559 587.478 487.456C446.111 432.614 406.861 302.84 214.338 315.467C75.01 328.902 -16.0002 396.536 -181.416 380.709C-253.813 372.603 -297.618 361.722 -384.948 367.963C-453.685 374.095 -485.016 383.562 -565.865 394.988" stroke="#3DDEED" stroke-opacity="0.05" stroke-width="0.5" stroke-linecap="round" stroke-linejoin="round"/>
<path d="M2147.87 394.988C1918.6 373.541 1860.07 414.668 1740.82 387.866C1634.26 360.293 1539.9 310.34 1367.67 351.296C1275.03 374.975 1224.25 401.311 1152.83 404.683C1076.68 404.305 1065.04 376.586 971.918 403.404C842.879 445.236 738.634 535.001 587.478 484.924C445.691 431.211 406.555 306.564 214.338 320.045C74.8599 333.962 -16.1089 399.773 -181.416 383.666C-253.461 375.483 -297.545 364.602 -384.948 370.066C-453.323 375.504 -484.767 384.391 -565.865 394.993" stroke="#3DDEED" stroke-opacity="0.05" stroke-width="0.5" stroke-linecap="round" stroke-linejoin="round"/>
<path d="M2147.87 394.988C1909.13 374.613 1857.05 420.977 1729.5 391.487C1589.13 355.201 1515.1 326.328 1356.38 364.985C1267.57 387.846 1220.42 409.681 1152.83 412.296C1076.94 411.447 1065.15 385.002 971.918 409.049C842.703 446.8 738.582 530.148 587.478 480.977C445.215 428.295 406.203 309.335 214.338 323.862C74.3371 338.488 -16.202 402.425 -181.416 386.276C-254.243 378.005 -297.592 367.393 -384.948 372.122C-453.711 376.964 -483.101 385.033 -565.865 394.988" stroke="#3DDEED" stroke-opacity="0.05" stroke-width="0.5" stroke-linecap="round" stroke-linejoin="round"/>
<path d="M2147.87 394.988C1986.84 382.392 1960.75 395.728 1842.58 404.548C1714.33 412.27 1702.44 379.802 1559.9 361.851C1337.76 338.043 1253.83 444.36 1084.99 411.561C916.684 381.154 803.278 529.267 610.082 483.774C478.937 447.38 452.441 371.718 327.399 335.816C224.747 310.733 148.054 338.229 33.4103 368.077C-202.793 427.823 -207.72 353.021 -441.496 379.155C-495.917 385.717 -505.761 388.379 -565.876 394.988" stroke="#3DDEED" stroke-opacity="0.05" stroke-width="0.5" stroke-linecap="round" stroke-linejoin="round"/>
<path d="M2147.87 394.988C1916.48 378.792 1862.05 423.944 1740.82 406.579C1633.55 387.659 1540.76 346.159 1356.38 386.592C1266.08 407.433 1219.94 426.057 1152.83 427.523C1077.52 425.752 1065.48 401.834 971.918 420.34C842.667 449.783 738.541 520.484 587.478 473.074C443.538 422.24 405.36 314.851 214.338 331.497C74.187 347.396 -16.5178 407.713 -181.416 391.502C-405.481 366.124 -345.662 373.09 -565.865 394.993" stroke="#3DDEED" stroke-opacity="0.05" stroke-width="0.5" stroke-linecap="round" stroke-linejoin="round"/>
<path d="M2147.87 394.988C1981.45 384.691 1946.94 401.327 1831.28 413.218C1669.31 427.274 1600.99 346.661 1356.37 397.396C1266.33 416.973 1219.57 434.24 1152.83 435.131C1112.48 433.94 1104.58 429.253 1062.38 422.748C905.188 404.771 781.414 528.817 587.473 469.122C461.773 425.804 434.501 358.412 304.79 336.525C197.465 322.464 119.622 356.387 -0.508258 382.879C-214.004 427.238 -189.242 354.015 -520.642 390.637C-537.392 392.388 -540.71 392.745 -565.871 394.988" stroke="#3DDEED" stroke-opacity="0.05" stroke-width="0.5" stroke-linecap="round" stroke-linejoin="round"/>
<path d="M2147.87 394.988C1923.36 382.615 1870.37 425.886 1752.13 419.407C1657.58 410.908 1558.78 370.128 1367.67 405.32C1272.39 423.908 1222.99 441.688 1152.83 442.066C1078.4 439.456 1065.97 418.258 971.918 430.931C842.238 451.71 738.582 508.773 587.478 463.083C442.032 414.238 403.952 319.061 214.338 337.81C74.3112 354.989 -17.3408 411.551 -181.416 395.853C-403.457 371.454 -342.887 377.161 -565.865 394.993" stroke="#3DDEED" stroke-opacity="0.05" stroke-width="0.5" stroke-linecap="round" stroke-linejoin="round"/>
<path d="M2147.87 394.988C1983.96 386.944 1956.04 402.145 1831.28 419.827C1670.16 440.398 1610.57 370.848 1356.37 417.367C1260.4 435.659 1210.84 451.057 1141.53 448.255C1101.56 445.044 1092.2 440.067 1051.06 434.784C894.474 420.34 770.441 516.035 576.164 452.44C454.77 409.065 422.927 350.462 293.48 337.831C185.467 330.875 107.433 364.964 -11.8178 388.607C-207.736 424.711 -194.796 362.923 -520.648 391.512C-537.568 392.916 -541.098 393.216 -565.876 394.982" stroke="#3DDEED" stroke-opacity="0.05" stroke-width="0.5" stroke-linecap="round" stroke-linejoin="round"/>
<path d="M2147.87 394.988C1986.45 388.037 1957.74 402.653 1831.28 423.012C1712.72 440.533 1703.77 416.512 1548.58 411.556C1361.04 407.837 1261.61 460.333 1141.53 454.848C1102.76 451.642 1091.53 446.81 1051.06 441.336C948.382 430.672 875.525 459.908 757.082 468.024C514.672 480.293 472.964 353.43 293.48 338.944C118.344 330.336 21.904 421.013 -204.04 396.215C-382.815 375.193 -388.353 383.65 -565.876 394.993" stroke="#3DDEED" stroke-opacity="0.05" stroke-width="0.5" stroke-linecap="round" stroke-linejoin="round"/>
<path d="M2147.87 394.988C2001.73 389.586 1973.74 399.411 1842.58 424.157C1679.39 453.569 1626.23 397.81 1378.99 433.541C1205.09 459.955 1194.28 473.1 1073.69 451.347C958.538 432.319 882.812 459.468 757.081 463.658C520.035 467.76 469.641 356.356 304.79 340.757C131.569 329.699 23.11 419.418 -192.731 398.867C-387.681 378.502 -361.49 383.723 -565.871 394.982" stroke="#3DDEED" stroke-opacity="0.05" stroke-width="0.5" stroke-linecap="round" stroke-linejoin="round"/>
<path d="M2147.87 394.988C1993.45 390.207 1970.01 401.726 1831.28 429.377C1677.52 458.298 1630.47 406.76 1356.37 446.898C1105.26 484.67 1148.89 464.29 1028.45 451.808C917.264 442.827 836.347 465.414 711.848 457.541C480.728 438.922 453.564 334.832 259.556 341.409C146.18 348.013 64.5337 384.329 -57.0461 399.633C-143.714 409.07 -183.486 400.623 -271.882 392.087C-381.05 382.351 -426.656 388.415 -565.871 394.983" stroke="#3DDEED" stroke-opacity="0.05" stroke-width="0.5" stroke-linecap="round" stroke-linejoin="round"/>
<path d="M2147.87 394.988C2006.81 391.212 1976.5 399.494 1842.58 429.165C1679.31 464.269 1647.67 416.75 1367.67 454.025C1111.6 489.155 1153.25 472.442 1028.45 457.567C915.841 446.189 836.026 462.317 711.848 451.093C472.804 425.943 448.492 329.632 248.247 342.937C136.015 352.819 51.3711 388.105 -68.3556 400.964C-153.082 408.598 -189.806 400.079 -283.192 392.336C-383.478 384.774 -432.376 389.596 -565.876 394.993" stroke="#3DDEED" stroke-opacity="0.05" stroke-width="0.5" stroke-linecap="round" stroke-linejoin="round"/>
<path d="M2147.87 394.988C1999.38 391.544 1974.13 400.685 1831.28 433.438C1667.49 469.459 1701.99 418.755 1299.84 471.188C1137.66 491.47 1123.37 475.907 1028.45 463.145C913.776 449.25 835.25 458.914 711.848 444.36C468.42 412.638 444.47 328.995 248.247 343.507C138.68 353.798 59.3474 385.24 -57.0512 399.431C-142.435 408.516 -181.571 401.555 -271.888 394.216C-373.296 386.556 -419.27 389.964 -565.876 394.998" stroke="#3DDEED" stroke-opacity="0.05" stroke-width="0.5" stroke-linecap="round" stroke-linejoin="round"/>
<path d="M2147.87 394.988C2000.76 392.092 1971.5 401.135 1831.28 435.281C1712.83 463.135 1716 445.008 1525.97 455.651C1422.81 462.047 1364.09 471.986 1277.22 481.241C1129.24 496.059 1115.78 479.185 994.542 464.243C870.701 450.047 785.907 453.445 655.316 427.673C435.495 381.874 407.482 316.731 191.714 351.519C75.3258 371.702 -4.02793 400.762 -124.888 403.492C-279.201 404.305 -176.467 384.769 -565.876 394.993" stroke="#3DDEED" stroke-opacity="0.05" stroke-width="0.5" stroke-linecap="round" stroke-linejoin="round"/>
<path d="M2147.87 394.988C2011.45 392.787 1974.08 399.82 1842.58 434.215C1718.57 466.18 1733.05 450.109 1537.29 462.788C1420.95 470.857 1355.19 481.837 1265.91 489.481C1128.66 500.186 1110.95 485.405 971.913 465.735C841.446 447.836 750.353 443.449 610.087 409.391C408.517 358.956 376.302 313.706 135.181 362.996C-198.595 432.78 -129.93 391.046 -407.572 392.31C-435.585 392.559 -425.673 392.44 -565.876 394.988" stroke="#3DDEED" stroke-opacity="0.05" stroke-width="0.5" stroke-linecap="round" stroke-linejoin="round"/>
<path d="M2147.87 394.988C2004.85 393.185 1969.7 401.13 1831.28 438.969C1716.86 469.365 1727.73 454.222 1514.68 472.463C1340.22 487.912 1244.72 506.51 1130.22 496.069C1111 493.93 766.621 438.161 632.702 406.76C444.061 361.644 407.477 336.883 282.176 342.487C168.085 349.655 86.506 378.632 -34.4268 395.682C-188.75 415.585 -143.325 389.632 -565.871 394.983" stroke="#3DDEED" stroke-opacity="0.05" stroke-width="0.5" stroke-linecap="round" stroke-linejoin="round"/>
<path d="M2147.87 394.988C1906.37 392.636 1874.3 440.574 1740.82 459.654C1699.52 464.492 1684.47 463.699 1582.51 472.136C1148.75 510.296 1250.22 538.947 711.853 417.983C427.87 352.772 382.471 319.626 169.105 357.201C-233.916 430.879 30.8275 389.648 -565.871 394.988" stroke="#3DDEED" stroke-opacity="0.05" stroke-width="0.5" stroke-linecap="round" stroke-linejoin="round"/>
<path d="M2147.87 394.988C2003.24 393.75 1967.09 400.731 1831.28 439.922C1735.51 467.133 1741.33 460.39 1582.51 476.362C1338.54 501.942 1224.97 525.922 1062.38 497.338C921.897 471.08 656.485 390.995 451.784 352.633C222.682 312.365 89.9636 394.879 -136.198 400.716C-232.741 401.974 -232.643 393.346 -565.876 394.982" stroke="#3DDEED" stroke-opacity="0.05" stroke-width="0.5" stroke-linecap="round" stroke-linejoin="round"/>
<path d="M2147.87 394.988C1893.44 393.108 1873.27 442.563 1729.5 464.062C986.576 560.632 1145.42 512.337 621.397 382.33C211.321 282.699 138.572 399.773 -170.116 399.68C-237.897 399.105 -317.421 394.744 -565.871 394.983" stroke="#3DDEED" stroke-opacity="0.05" stroke-width="0.5" stroke-linecap="round" stroke-linejoin="round"/>
<path d="M2147.87 394.988C1894.96 393.403 1886.47 436.183 1740.82 463.73C1740.61 463.767 1427.31 507.36 1345.06 515.159C1085.08 538.264 1002.19 496.24 802.31 428.854C388.041 291.98 281.078 344.009 -0.508258 385.406C-157.399 407.464 -208.134 395.516 -565.871 394.988" stroke="#3DDEED" stroke-opacity="0.05" stroke-width="0.5" stroke-linecap="round" stroke-linejoin="round"/>
<path d="M2147.87 394.988C1890.51 393.874 1872.83 441.072 1729.5 467.149C1239.23 547.513 1125.48 548.912 904.081 464.782C711.041 390.466 592.442 342.435 383.947 339.498C254.354 339.063 163.644 359.008 33.4206 379.108C-169.392 409.608 -314.165 396.319 -565.871 394.993" stroke="#3DDEED" stroke-opacity="0.05" stroke-width="0.5" stroke-linecap="round" stroke-linejoin="round"/>
<path d="M2147.87 394.988C1889.75 393.776 1875.11 438.928 1729.5 466.957C1056.49 584.788 1069.66 528.604 768.391 410.613C436.996 283.227 211.714 359.06 -45.7364 387.581C-216.214 405.367 -527.092 395.273 -565.876 394.983" stroke="#3DDEED" stroke-opacity="0.05" stroke-width="0.5" stroke-linecap="round" stroke-linejoin="round"/>
<path d="M2147.87 394.988C1878.56 393.527 1875.81 439.233 1718.2 468.355C1393.02 524.705 1173.06 589.408 915.39 474.28C684.275 369.817 620.579 336.525 406.55 339.198C119.167 344.382 100.492 394.154 -373.654 398.328C-482.21 398.836 -489.566 395.702 -565.881 394.988" stroke="#3DDEED" stroke-opacity="0.05" stroke-width="0.5" stroke-linecap="round" stroke-linejoin="round"/>
<path d="M2147.87 394.988C1875.67 393.367 1878.85 436.53 1718.2 467.77C1472.2 512.958 1184.19 594.317 960.613 498.001C766.528 411.385 673.716 333.578 451.784 337.649C52.8308 347.365 111.874 402.539 -565.876 394.982" stroke="#3DDEED" stroke-opacity="0.05" stroke-width="0.5" stroke-linecap="round" stroke-linejoin="round"/>
<path d="M2147.87 394.988C1873.79 393.04 1882.55 433.66 1718.2 467.19C1494.52 510.187 1400.53 543.722 1231.98 547.058C1071.31 548.637 1026.44 532.323 960.613 502.155C767.817 410.406 676.848 325.292 451.784 336.287C-55.25 363.664 28.4464 402.751 -565.871 394.988" stroke="#3DDEED" stroke-opacity="0.05" stroke-width="0.5" stroke-linecap="round" stroke-linejoin="round"/>
<path d="M2147.87 394.988C2020.08 394.268 1975.11 391.046 1842.58 431.692C1711.06 473.089 1757.87 455.91 1605.12 490.817C1436.96 530.283 1338.25 556.675 1164.14 551.341C1058.32 547.384 1027.53 545.665 892.756 469.692C526.184 261.283 606.33 337.163 -260.578 394.34C-440.072 404.942 -470.611 396.391 -565.876 394.982" stroke="#3DDEED" stroke-opacity="0.05" stroke-width="0.5" stroke-linecap="round" stroke-linejoin="round"/>
<path d="M2147.87 394.988C2021.19 394.206 1975.86 389.638 1842.58 429.75C1698.41 474.135 1752.46 454.496 1616.44 487.042C1440.5 530.013 1346.46 560.472 1164.14 556.463C1057.69 553.402 1026.96 552.056 892.756 472.685C604.942 300.929 569.683 326.638 372.627 343.434C-541.103 418.372 -344.994 398.421 -565.871 394.988" stroke="#3DDEED" stroke-opacity="0.05" stroke-width="0.5" stroke-linecap="round" stroke-linejoin="round"/>
<path d="M2147.87 394.988C2059.18 394.377 2016.28 390.212 1933.05 405.02C1846.82 421.899 1811.31 440.694 1729.5 459.629C1507.18 508.577 1434.26 541.93 1288.52 557.033C1064.66 577.615 1005.96 543.013 926.69 496.597C801.621 421.52 684.809 332.082 530.936 330.73C465.159 331.983 457.099 340.052 327.404 349.551C223.769 356.776 163.934 357.718 -0.508258 369.941C-510.021 410.22 -281.396 399.54 -565.871 394.988" stroke="#3DDEED" stroke-opacity="0.05" stroke-width="0.5" stroke-linecap="round" stroke-linejoin="round"/>
<path d="M2147.87 394.988C2033.22 394.123 1981.96 386.675 1853.9 422.23C1581.47 500.352 1892.9 410.168 1469.44 524.466C1341.43 558.441 1253.29 571.296 1107.61 565.314C907.176 553.599 775.151 328.622 530.941 330.487C448.129 333.547 450.158 347.676 236.953 356.905C-201.462 374.136 -218.59 392.869 -373.643 399.079C-465.714 401.985 -487.557 396.282 -565.871 394.993" stroke="#3DDEED" stroke-opacity="0.05" stroke-width="0.5" stroke-linecap="round" stroke-linejoin="round"/>
<path d="M2147.87 394.988C2039.38 394.252 1987.1 385.753 1865.19 417.118C1817.45 430.009 1796.84 437.519 1752.13 449.255C1451.61 523.669 1439.94 540.848 1311.13 561.187C1238.63 571.742 1109.13 579.282 1039.77 561.01C938.703 529.2 862.326 450.767 734.462 382.661C549.264 288.323 507.954 348.101 270.861 357.599C137.148 362.364 46.899 358.827 -136.203 376.073C-243.155 386.447 -286.065 394.931 -373.654 398.991C-465.264 402.363 -486.149 396.329 -565.881 394.983" stroke="#3DDEED" stroke-opacity="0.05" stroke-width="0.5" stroke-linecap="round" stroke-linejoin="round"/>
<path d="M2147.87 394.988C1968.43 393.698 1982.05 369.149 1469.43 525.694C1340.81 564.423 1254.29 580.033 1107.6 576.548C957.389 570.105 883.045 456.008 711.848 370.687C535.889 287.748 506.106 355.284 248.247 360.313C123.525 362.219 32.696 357.563 -124.893 372.453C-228.088 382.656 -266.536 391.502 -351.039 397.613C-452.593 403.979 -483.297 396.417 -565.876 394.988" stroke="#3DDEED" stroke-opacity="0.05" stroke-width="0.5" stroke-linecap="round" stroke-linejoin="round"/>
<path d="M2147.87 394.988C2037.09 394.143 1984.41 382.956 1853.9 415.756C1603.48 481.402 1654.08 464.378 1548.58 498.804C1458.74 528.444 1395.57 550.564 1311.13 566.858C1238.87 579.857 1109.87 591.158 1039.77 572.451C937.751 539.532 862.046 455.211 734.462 383.956C545.113 283.113 504.015 357.719 282.17 363.053C162.061 365.026 74.332 356.046 -68.3556 365.218C-170.246 372.438 -216.048 381.89 -294.502 391.533C-430.543 407.34 -472.241 396.578 -565.876 394.988" stroke="#3DDEED" stroke-opacity="0.05" stroke-width="0.5" stroke-linecap="round" stroke-linejoin="round"/>
<path d="M2147.87 394.988C2041.39 394.128 1988.25 382.796 1865.19 410.634C1471.92 504.905 1475.94 533.753 1311.13 569.007C1238.3 583.607 1110.75 596.99 1039.77 578.013C937.332 544.748 861.855 458.246 734.462 386.105C543.819 283.315 500.64 364.565 282.17 366.901C165.673 367.088 78.4625 355.486 -57.046 362.183C-154.868 367.792 -204.796 377.979 -283.192 388.954C-427.536 408.272 -472.329 396.547 -565.876 394.982" stroke="#3DDEED" stroke-opacity="0.05" stroke-width="0.5" stroke-linecap="round" stroke-linejoin="round"/>
<path d="M2147.87 394.988C2040.37 394.071 1988.01 382.024 1865.19 408.35C1486.6 494.707 1503.27 523.565 1322.45 568.499C1248.94 585.756 1123.74 601.656 1051.06 586.601C896.519 545.219 768.536 343.745 564.859 336.779C463.223 337.302 447.394 371.189 282.176 370.754C48.3949 367.668 49.8079 335.847 -271.882 386.064C-425.937 409.323 -468.049 396.578 -565.871 394.988" stroke="#3DDEED" stroke-opacity="0.05" stroke-width="0.5" stroke-linecap="round" stroke-linejoin="round"/>
<path d="M2147.87 394.988C2040.59 394.024 1988.23 381.154 1865.19 406.066C1506.4 483.691 1505.67 521.038 1322.45 570.411C1249.57 589.045 1125.01 607.39 1051.06 592.173C896.058 550.58 768.935 344.16 564.859 339.307C462.151 340.98 444.361 377.249 282.176 374.608C47.2976 368.092 47.5149 331.336 -271.882 384.759C-425.662 409.645 -467.888 396.557 -565.871 394.993" stroke="#3DDEED" stroke-opacity="0.05" stroke-width="0.5" stroke-linecap="round" stroke-linejoin="round"/>
<path d="M2147.87 394.988C2037.62 393.967 1984.61 379.347 1853.9 406.092C1473.53 488.399 1521.55 517.273 1311.13 575.45C1237.39 594.794 1113.15 614.423 1039.77 594.701C886.451 543.971 759.152 336.469 553.555 342.14C454.781 348.779 432.239 384.837 270.871 377.974C55.6879 366.295 21.0654 329.818 -260.573 381.429C-423.369 410.473 -463.007 396.588 -565.871 394.988" stroke="#3DDEED" stroke-opacity="0.05" stroke-width="0.5" stroke-linecap="round" stroke-linejoin="round"/>
<path d="M2147.87 394.988C2042.23 393.993 1988.82 379.719 1865.19 401.664C1527.86 466.222 1514.43 513.383 1322.45 573.28C1248.86 595.182 1127.01 617.769 1051.06 602.35C896.192 560.814 770.337 346.858 564.859 346.252C460.179 350.276 439.868 390.389 282.176 383.402C170.384 376.855 88.6747 354.917 -34.4268 353.275C-238.756 353.187 -254.486 407.972 -531.947 395.759C-543.619 395.386 -544.302 395.309 -565.871 394.988" stroke="#3DDEED" stroke-opacity="0.05" stroke-width="0.5" stroke-linecap="round" stroke-linejoin="round"/>
<path d="M2147.87 394.988C1971.74 393.304 2001.11 370.293 1752.13 423.214C1676.6 438.782 1646.52 443.993 1559.9 477.963C1473.85 512.487 1221.45 641.168 1051.06 606.799C894.919 565.014 771.171 349.442 564.854 351.017C459.584 356.175 437.555 397.758 282.17 388.545C169.561 380.118 88.4212 355.196 -34.4319 351.773C-235.966 349.054 -266.334 409.541 -520.648 396.22C-536.755 395.526 -539.887 395.36 -565.876 394.993" stroke="#3DDEED" stroke-opacity="0.05" stroke-width="0.5" stroke-linecap="round" stroke-linejoin="round"/>
<path d="M2147.87 394.988C2041.08 393.967 1988.81 378.86 1865.19 397.489C1660.44 431.143 1595.16 460.058 1548.58 479.232C1461.16 516.097 1202.45 651.64 1039.77 608.218C884.101 556.639 762.087 344.051 553.555 356.439C451.473 366.564 426.147 406.775 270.871 392.647C162.014 381.082 82.9345 355.232 -34.4268 350.255C-225.629 345.149 -276.354 408.671 -520.642 396.163C-536.9 395.485 -540.13 395.324 -565.871 394.977" stroke="#3DDEED" stroke-opacity="0.05" stroke-width="0.5" stroke-linecap="round" stroke-linejoin="round"/>
<path d="M2147.87 394.988C2040.48 393.962 1989.15 378.373 1865.19 395.402C1666.25 425.441 1601.14 453.212 1537.29 480.853C1440.57 523.508 1186.76 661.393 1028.45 608.917C873.744 547.814 752.465 339.519 542.24 362.561C444.957 376.892 414.501 415.373 259.556 396.21C150.062 381.03 70.9158 352.959 -45.7416 348.303C-234.537 344.066 -257.617 406.817 -531.957 395.666C-543.8 395.324 -544.209 395.262 -565.881 394.982" stroke="#3DDEED" stroke-opacity="0.05" stroke-width="0.5" stroke-linecap="round" stroke-linejoin="round"/>
<path d="M2147.87 394.988C2038.5 393.926 1984.74 376.881 1853.9 394.869C1663.92 423.276 1611.37 444.801 1537.29 477.719C1440.3 521.685 1187.38 666.054 1028.45 613.372C873.154 551.9 753.448 342.181 542.24 367.559C447.105 382.578 415.293 420.407 270.866 402.565C98.944 378.326 2.2868 316.777 -215.35 363.436C-433.287 411.784 -406.578 396.904 -565.871 394.988" stroke="#3DDEED" stroke-opacity="0.05" stroke-width="0.5" stroke-linecap="round" stroke-linejoin="round"/>
<path d="M2147.87 394.988C2038.73 393.962 1984.53 376.866 1853.9 393.134C1666.71 418.682 1613.5 440.139 1537.29 474.581C1434.7 521.944 1197.87 661.677 1039.77 619.789C883.196 567.935 764.395 352.312 553.555 371.738C452.353 385.028 423.404 426.332 282.181 409.779C105.543 385.443 7.74231 312.743 -215.339 361.582C-434.451 411.375 -405.967 396.795 -565.871 394.988" stroke="#3DDEED" stroke-opacity="0.05" stroke-width="0.5" stroke-linecap="round" stroke-linejoin="round"/>
<path d="M2147.87 394.988C2041.05 394.014 1989.02 378.01 1865.19 390.212C1672.88 411.68 1608.25 438.881 1537.29 471.442C1424.08 524.585 1186.6 670.756 1028.45 618.447C872.372 556.8 755.829 348.515 542.24 378.974C447.27 396.003 411.814 435.333 270.866 413.964C88.2917 382.599 1.6553 309.361 -226.654 362.354C-428.442 410.862 -420.926 396.521 -565.871 394.988" stroke="#3DDEED" stroke-opacity="0.05" stroke-width="0.5" stroke-linecap="round" stroke-linejoin="round"/>
<path d="M2147.87 394.988C2062.57 394.237 1797.55 350.659 1548.58 463.042C1428.32 519.054 1212.31 658.974 1051.06 627.578C895.39 586.487 780.948 373.888 576.164 380.828C465.422 389.197 439.304 436.892 304.79 424.54C191.398 411.147 109.224 367.657 -11.8127 347.78C-208.849 319.362 -274.269 404.548 -486.719 397.411C-524.39 395.785 -526.88 395.361 -565.871 394.982" stroke="#3DDEED" stroke-opacity="0.05" stroke-width="0.5" stroke-linecap="round" stroke-linejoin="round"/>
<path d="M2147.87 394.988C2037.61 394.05 1984.03 376.985 1853.9 388.146C1674.1 405.595 1618.71 426.658 1537.29 465.165C1418.16 522.959 1197.25 668.452 1039.77 627.003C885.509 576.118 771.243 369.066 564.859 387.178C458.393 400.752 427.984 446.665 293.485 429.258C183.733 412.208 104.172 368.714 -11.8127 347.386C-208.243 315.426 -273.451 403.818 -486.719 397.282C-525.218 395.718 -526.797 395.335 -565.871 394.988" stroke="#3DDEED" stroke-opacity="0.05" stroke-width="0.5" stroke-linecap="round" stroke-linejoin="round"/>
<path d="M2147.87 394.988C2049.34 394.18 1786.96 349.898 1559.9 451.363C1426.61 513.155 1214.78 664.013 1051.06 632.379C895.426 591.484 781.983 379.378 576.164 391.543C464.755 402.679 436.302 451.627 304.79 436.902C194.664 421.391 116.372 375.493 -0.508204 349.292C-201.374 308.439 -267.493 400.115 -475.414 397.463C-518.945 396.241 -513.929 395.412 -565.876 394.982" stroke="#3DDEED" stroke-opacity="0.05" stroke-width="0.5" stroke-linecap="round" stroke-linejoin="round"/>
<path d="M2147.87 394.988C2036.67 394.138 1776.53 347.795 1548.58 453.937C1419.27 516.294 1200.28 671.658 1039.77 629.411C885.168 578.48 773.215 373.67 564.859 397.608C456.37 414.244 420.733 463.891 282.176 439.492C108.825 404.31 3.89135 303.85 -204.04 349.826C-414.565 399.752 -339.849 396.681 -565.871 394.988" stroke="#3DDEED" stroke-opacity="0.05" stroke-width="0.5" stroke-linecap="round" stroke-linejoin="round"/>
<path d="M2147.87 394.988C2031.79 394.154 1775.34 349.266 1559.9 446.038C1420.26 511.244 1228.65 655.24 1062.38 634.321C902.259 603.169 789.483 381.693 576.169 401.001C462.042 415.839 428.885 468.464 293.485 447.665C179.095 426.668 96.0505 371.588 -23.1172 345.118C-218.197 306.621 -259.651 404.849 -520.637 395.697C-537.154 395.252 -540.503 395.159 -565.865 394.982" stroke="#3DDEED" stroke-opacity="0.05" stroke-width="0.5" stroke-linecap="round" stroke-linejoin="round"/>
<path d="M2147.87 394.988C1997.18 393.967 1964.86 368.968 1740.82 393.304C1495.14 421.505 1381.29 587.186 1152.83 630.126C1075.43 642.815 1039.05 636.952 971.918 596.897C840.612 513.274 743.142 387.939 576.169 405.703C443.585 424.965 404.956 500.508 203.029 428.445C57.2873 374.219 -34.463 312.297 -192.725 343.947C-267.131 360.443 -313.332 380.056 -396.257 392.041C-463.644 400.426 -480.14 395.516 -565.871 394.988" stroke="#3DDEED" stroke-opacity="0.05" stroke-width="0.5" stroke-linecap="round" stroke-linejoin="round"/>
<path d="M2147.87 394.988C2004.66 394.102 1957.85 370.438 1752.13 390.078C1489.03 416.46 1386.55 585.166 1152.83 629.815C1075.91 642.639 1039.38 636.786 971.913 596.7C839.008 512.446 743.8 389.917 576.164 410.401C443.041 431.77 401.995 507.821 203.024 433.541C58.0275 377.042 -34.551 310.764 -192.73 342.254C-266.846 358.708 -313.063 378.839 -396.262 391.424C-462.971 400.156 -479.716 395.469 -565.876 394.988" stroke="#3DDEED" stroke-opacity="0.05" stroke-width="0.5" stroke-linecap="round" stroke-linejoin="round"/>
<path d="M2147.87 394.988C2001.03 394.149 1950.25 369.864 1740.82 389.12C1492.57 413.938 1374.2 592.044 1141.53 631.411C1074.06 641.054 1036.44 637.201 960.619 589.366C828.159 501.569 733.903 387.364 564.859 417.082C436.054 444.278 390.996 515.165 191.719 434.028C45.1909 372.158 -43.8524 307.465 -204.035 343.072C-278.865 361.225 -325.563 381.087 -407.567 392.362C-468.266 399.395 -482.024 395.392 -565.871 394.988" stroke="#3DDEED" stroke-opacity="0.05" stroke-width="0.5" stroke-linecap="round" stroke-linejoin="round"/>
<path d="M2147.87 394.988C1999.51 394.206 1934.45 369.734 1729.5 389.021C1563.13 406.858 1467.36 493.293 1311.13 571.835C1103.23 673.186 1024.16 628.489 949.304 579.179C821.611 491.48 728.562 388.871 564.864 420.65C437.648 449.731 387.999 521.644 191.724 439.197C52.5201 378.414 -39.8876 309.299 -192.725 339.12C-269.921 356.134 -319.75 379.191 -407.562 391.802C-467.64 399.146 -481.755 395.355 -565.865 394.982" stroke="#3DDEED" stroke-opacity="0.05" stroke-width="0.5" stroke-linecap="round" stroke-linejoin="round"/>
<path d="M2147.87 394.988C1972.9 394.138 1757.3 346.438 1559.9 434.561C1414.33 502.367 1216.15 658.855 1051.06 625.6C894.5 583.4 789.09 384.127 576.164 421.707C461.934 446.013 420.391 499.834 293.48 478.03C181.077 454.579 103.711 391.611 -11.8179 350.685C-208.305 286.459 -273.119 399.478 -498.034 395.946C-536.579 395.086 -532.941 395.164 -565.881 394.988" stroke="#3DDEED" stroke-opacity="0.05" stroke-width="0.5" stroke-linecap="round" stroke-linejoin="round"/>
<path d="M2147.87 394.988C1948.72 394.138 1750.98 344.336 1548.58 438.037C1407.2 506.194 1202.26 663.692 1039.77 619.566C879.158 565.76 779.266 370.956 553.555 430.568C449.475 461.213 399.33 510.389 270.871 478.776C158.137 447.1 79.8186 380.6 -34.4268 344.159C-219.299 291.016 -267.255 400.4 -520.642 395.402C-540.379 395.086 -538.024 395.127 -565.871 394.993" stroke="#3DDEED" stroke-opacity="0.05" stroke-width="0.5" stroke-linecap="round" stroke-linejoin="round"/>
<path d="M2147.87 394.988C1935.05 394.175 1748.13 344.439 1548.58 436.24C1407.14 504.003 1202.55 661.134 1039.77 616.567C878.682 562.341 780.71 370.236 553.555 434.225C451.116 466.102 402.104 512.699 282.181 487.43C169.188 459.344 92.0806 391.171 -23.1172 348.526C-211.038 284.672 -277.633 397.805 -498.023 395.733C-537.283 395.055 -533.557 395.117 -565.871 394.982" stroke="#3DDEED" stroke-opacity="0.05" stroke-width="0.5" stroke-linecap="round" stroke-linejoin="round"/>
<path d="M2147.87 394.988C1990.89 394.459 1897.78 372.391 1729.5 384.433C1564.71 398.763 1467.07 485.322 1311.13 562.523C1098.51 664.516 1018.2 611.839 949.304 567.593C816.502 479.035 729.768 390.249 564.864 434.505C437.291 472.727 376.374 546.871 191.724 459.965C51.5109 390.948 -40.519 305.751 -192.725 333.465C-266.567 349.132 -311.168 371.464 -396.257 387.675C-461.511 398.722 -484.597 395.278 -565.871 394.993" stroke="#3DDEED" stroke-opacity="0.05" stroke-width="0.5" stroke-linecap="round" stroke-linejoin="round"/>
<path d="M2147.87 394.988C1890.32 393.89 1739.75 343.476 1537.29 438.627C1394.32 508.069 1191.27 660.227 1028.45 604.655C869.329 541.06 776.419 368.916 553.55 440.196C448.14 476.803 394.035 526.647 270.866 496.048C157.345 463.404 80.4086 390.109 -34.432 346.2C-220.381 281.347 -238.192 395.998 -565.871 394.988" stroke="#3DDEED" stroke-opacity="0.05" stroke-width="0.5" stroke-linecap="round" stroke-linejoin="round"/>
<path d="M2147.87 394.988C1972.69 394.33 1819.77 368.564 1684.28 388.907C1529.06 416.497 1418.62 514.243 1265.91 575.859C1070.22 650.848 1012.6 601.641 881.472 511.239C750.275 422.069 671.729 393.237 519.636 455.641C382.782 514.01 323.289 546.7 146.496 446.033C-13.9297 352.57 -79.0287 295.874 -249.258 345.387C-434.229 401.197 -421.625 395.381 -565.871 394.988" stroke="#3DDEED" stroke-opacity="0.05" stroke-width="0.5" stroke-linecap="round" stroke-linejoin="round"/>
<path d="M2147.87 394.988C1979.95 394.444 1915.61 380.61 1786.04 381.423C1480.88 386.085 1368.74 593.09 1107.6 606.758C901.979 610.502 824.779 333.635 530.936 453.657C430.153 496.737 370.101 539.921 248.252 500.285C70.0617 435.437 -19.5716 284.874 -226.654 337.711C-398.726 385.08 -364.709 395.443 -565.871 394.988" stroke="#3DDEED" stroke-opacity="0.05" stroke-width="0.5" stroke-linecap="round" stroke-linejoin="round"/>
<path d="M2147.87 394.988C1960.76 394.48 1904.67 380.341 1774.75 381.506C1483.81 386.882 1356.17 598.399 1096.31 602.024C1066.32 601.118 1046.86 598.01 1005.84 579.308C832.636 492.356 761.212 358.014 530.936 456.329C427.927 502.129 367.658 544.717 248.252 505.873C138.458 465.724 64.0835 389.803 -45.7364 344.584C-194.112 289.115 -266.877 366.958 -430.186 391.088C-475.626 396.686 -485.766 395.205 -565.876 394.988" stroke="#3DDEED" stroke-opacity="0.05" stroke-width="0.5" stroke-linecap="round" stroke-linejoin="round"/>
<path d="M2147.87 394.988C1920.58 394.485 1807.76 370.092 1684.28 387.545C1533.11 412.99 1427.47 501.647 1277.23 560.896C1072.15 637.563 1008.5 581.525 892.766 504.718C759.183 416.916 682.029 391.714 530.941 458.992C450.686 496.054 406.488 525.673 327.409 526.243C255.855 523.187 202.925 494.826 146.491 460.281C-12.9566 359.997 -77.7761 291.488 -249.263 341.617C-434.575 398.282 -417.593 395.309 -565.871 394.988" stroke="#3DDEED" stroke-opacity="0.05" stroke-width="0.5" stroke-linecap="round" stroke-linejoin="round"/>
<path d="M2147.87 394.988C1903.47 394.32 1803.08 371.055 1684.28 387.55C1533.19 412.581 1427.37 499.803 1277.23 556.877C1072.82 630.447 1009.94 575.569 892.766 498.705C756.849 410.748 680.466 391.217 530.941 460.825C449.801 499.845 405.174 529.568 327.409 531.132C255.685 528.931 202.936 500.42 146.491 465.175C-14.5612 361.613 -78.2057 290.452 -249.263 340.456C-426.335 394.755 -408.043 395.454 -565.871 394.988" stroke="#3DDEED" stroke-opacity="0.05" stroke-width="0.5" stroke-linecap="round" stroke-linejoin="round"/>
<path d="M2147.87 394.988C1874.79 394.625 1793.21 369.807 1672.98 389.41C1523.26 417.636 1415.23 505.138 1265.91 556.758C1070.65 620.426 1016.45 572.43 892.761 492.661C753.619 404.046 677.93 391.238 530.935 462.643C450.883 502.652 409.889 529.609 338.713 535.643C122.402 542.847 18.0167 272.061 -226.649 332.905C-305.04 354.285 -355.563 379.523 -441.485 391.595C-479.146 395.93 -483.375 395.164 -565.865 394.982" stroke="#3DDEED" stroke-opacity="0.05" stroke-width="0.5" stroke-linecap="round" stroke-linejoin="round"/>
<path d="M2147.87 394.988C1865.58 394.408 1796.92 372.463 1684.28 387.587C1528.68 412.498 1421.3 501.031 1265.91 552.563C1064.44 615.417 1014.96 563.196 881.472 479.537C740.378 393.382 665.259 394.78 519.636 470.323C365.82 551.455 300.69 575.103 146.496 474.974C-3.20497 374.54 -74.6497 290.441 -237.953 334.837C-414.674 386.515 -381.925 395.257 -565.871 394.988" stroke="#3DDEED" stroke-opacity="0.05" stroke-width="0.5" stroke-linecap="round" stroke-linejoin="round"/>
<path d="M2147.87 394.988C1737.03 394.216 1722.87 345.392 1492.07 450.757C1354.05 514.714 1245.26 578.79 1084.99 572.42C953.734 557.691 860.618 413.56 700.549 411.866C512.457 419.014 424.221 606.043 225.643 524.668C110.999 472.561 34.1194 378.751 -79.655 334.64C-147.347 311.702 -190.034 318.647 -260.573 340.477C-441.159 398.665 -431.159 395.086 -565.871 394.988" stroke="#3DDEED" stroke-opacity="0.05" stroke-width="0.5" stroke-linecap="round" stroke-linejoin="round"/>
<path d="M2147.87 394.988C2030.04 394.988 2016.94 397.8 1910.44 390.73C1815.39 384.055 1754.28 378.565 1684.27 387.623C1533.72 410.929 1427.32 492.247 1277.22 540.75C1066.23 604.779 1006.54 544.857 892.761 474.529C748.479 387.048 673.427 390.192 530.936 468.086C367.916 558.871 302.6 590.029 146.486 484.763C-10.9846 374.748 -76.0887 285.174 -249.268 335.821C-428.261 391.367 -400.372 394.988 -565.871 394.988" stroke="#3DDEED" stroke-opacity="0.05" stroke-width="0.5" stroke-linecap="round" stroke-linejoin="round"/>
</g>
<defs>
<clipPath id="clip0_5_51">
<rect width="2714" height="683" fill="white" transform="translate(-566)"/>
</clipPath>
</defs>
</svg>
